<?xml version="1.0" encoding="UTF-8"?>
<svg width="258px" height="258px" viewBox="0 0 258 258" version="1.1" xmlns="http://www.w3.org/2000/svg" xmlns:xlink="http://www.w3.org/1999/xlink">
    <!-- Generator: Sketch 46.2 (44496) - http://www.bohemiancoding.com/sketch -->
    <title>WordPress_logo</title>
    <desc>Created with Sketch.</desc>
    <defs></defs>
    <g id="Page-1" stroke="none" stroke-width="1" fill="none" fill-rule="evenodd">
        <g id="WordPress_logo">
            <g id="Group">
                <circle id="Oval" fill="#FFFFFF" cx="129.033327" cy="130.051574" r="127.627079"></circle>
                <path d="M18.3222259,128.895218 C18.3222259,172.664045 43.7583064,210.488879 80.6426219,228.413436 L27.8957362,83.8934073 C21.7602733,97.645597 18.3222259,112.864322 18.3222259,128.895218 Z" id="Shape" fill="#464342" fill-rule="nonzero"></path>
                <path d="M203.547558,123.315229 C203.547558,109.649306 198.638767,100.185207 194.428526,92.8188646 C188.823288,83.7103533 183.56943,75.9968393 183.56943,66.8883281 C183.56943,56.7235746 191.278736,47.2615799 202.137832,47.2615799 C202.62808,47.2615799 203.093079,47.3225979 203.570702,47.3499508 C183.897665,29.3265026 157.687287,18.3222259 128.899426,18.3222259 C90.2687339,18.3222259 56.2817203,38.1425483 36.5097914,68.1633934 C39.1041075,68.2412439 41.5490347,68.2959497 43.6257501,68.2959497 C55.191813,68.2959497 73.0953293,66.8925362 73.0953293,66.8925362 C79.0561545,66.5411568 79.7589133,75.2961846 73.8044002,76.0010474 C73.8044002,76.0010474 67.8141181,76.7059103 61.14843,77.0551856 L101.416087,196.829268 L125.614976,124.253643 L108.386865,77.0509775 C102.432352,76.7017022 96.7913453,75.9968393 96.7913453,75.9968393 C90.8326242,75.647564 91.5311748,66.5369487 97.489896,66.8883281 C97.489896,66.8883281 115.751104,68.2917416 126.616512,68.2917416 C138.180471,68.2917416 156.086091,66.8883281 156.086091,66.8883281 C162.051125,66.5369487 162.751779,75.2919765 156.795162,75.9968393 C156.795162,75.9968393 150.792256,76.7017022 144.139192,77.0509775 L184.099655,195.918206 L195.129181,159.061244 C199.909624,143.766772 203.547558,132.781432 203.547558,123.315229 Z" id="Shape" fill="#464342" fill-rule="nonzero"></path>
                <path d="M130.839377,138.567619 L97.6624296,234.97392 C107.568383,237.885951 118.044538,239.47873 128.899426,239.47873 C141.776323,239.47873 154.1251,237.252626 165.619624,233.210711 C165.322951,232.737296 165.05363,232.234423 164.832703,231.687366 L130.839377,138.567619 Z" id="Shape" fill="#464342" fill-rule="nonzero"></path>
                <path d="M225.926427,75.8432423 C226.401946,79.3654525 226.671267,83.1464631 226.671267,87.2136269 C226.671267,98.4346226 224.575615,111.048511 218.263411,126.820607 L184.486804,224.476724 C217.360765,205.306559 239.472418,169.690996 239.472418,128.897322 C239.474522,109.672451 234.563627,91.5942969 225.926427,75.8432423 Z" id="Shape" fill="#464342" fill-rule="nonzero"></path>
                <path d="M128.899426,0 C57.8261063,0 0,57.8218982 0,128.895218 C0,199.976954 57.8261063,257.796748 128.899426,257.796748 C199.970642,257.796748 257.805164,199.976954 257.805164,128.895218 C257.80306,57.8218982 199.970642,0 128.899426,0 Z M128.899426,251.888525 C61.085308,251.888525 5.91032757,196.713544 5.91032757,128.895218 C5.91032757,61.0810998 61.0832039,5.91032757 128.899426,5.91032757 C196.71144,5.91032757 251.882212,61.0810998 251.882212,128.895218 C251.882212,196.713544 196.71144,251.888525 128.899426,251.888525 Z" id="Shape" fill="#464342" fill-rule="nonzero"></path>
            </g>
        </g>
    </g>
</svg>