<?xml version="1.0" encoding="UTF-8"?>
<svg width="200px" height="200px" viewBox="0 0 200 200" version="1.1" xmlns="http://www.w3.org/2000/svg" xmlns:xlink="http://www.w3.org/1999/xlink">
    <!-- Generator: Sketch 46.2 (44496) - http://www.bohemiancoding.com/sketch -->
    <title>1</title>
    <desc>Created with Sketch.</desc>
    <defs></defs>
    <g id="Page-1" stroke="none" stroke-width="1" fill="none" fill-rule="evenodd">
        <g id="Artboard" fill-rule="nonzero">
            <g id="1" transform="translate(22.000000, 62.000000)">
                <path d="M142.008417,90.5835921 C142.106666,90.6740647 142.205605,90.7538934 142.304199,90.841705 C141.956362,90.8629927 141.608869,90.908229 141.262067,90.9734225 C141.465115,90.5144072 141.715737,90.3148354 142.008417,90.5835921 M155.873289,95.6527171 C153.670781,93.7740807 151.412081,92.8454064 149.157863,92.1282782 C149.218881,90.7086572 148.93413,89.1347005 148.495973,88.9989917 C142.807166,87.2307851 137.024936,87.6432336 131.319237,87.1216858 C125.593544,86.5988076 119.867161,86.1158437 114.141123,85.6621504 C102.688358,84.7547637 91.2352471,83.9977211 79.7814473,83.3710655 C56.8721239,82.1204153 33.9634899,81.3460765 11.0541665,82.7510623 C7.38688217,82.9759133 3.72166621,83.155528 0.0571397239,83.7821836 C-0.0190465746,83.7941579 -0.0190465746,84.2265635 0.0571397239,84.2385378 C22.9326792,88.0743088 45.8926785,87.2347765 68.7857994,88.3231083 C76.3644401,88.6836681 83.9430807,89.1307091 91.5217214,89.6150034 C86.7981709,89.7107979 82.0746204,89.7560342 77.3510699,89.6815274 C66.5612284,89.5112261 55.7724212,89.7839743 44.9825797,89.3795086 C39.4730348,89.1719539 33.9638347,88.8938838 28.4546345,88.5599336 C22.9778394,88.2273138 17.3969344,86.4497939 11.9291024,87.6405726 C11.2906543,87.7802729 11.30927,91.1690029 11.9291024,91.413811 C17.1501046,93.4707315 22.5200321,92.616564 27.7661999,92.9890981 C33.2750554,93.380259 38.7842555,93.6982434 44.2938005,93.9616783 C55.3104771,94.4885479 66.3337037,95.1976932 77.3510699,94.9542156 C93.8304076,94.5909948 110.351458,94.3847706 126.839069,92.3251891 C130.39397,92.6405126 133.948527,92.9465228 137.503083,93.2897864 C138.255983,93.3629627 139.011985,93.4733925 139.766954,93.5771698 C142.243181,94.4180326 144.759742,94.3634829 147.239071,94.7240427 C150.108985,95.1444741 152.959938,96.4935798 155.82606,96.9991618 C156.026006,97.0364152 156.069098,95.8203574 155.873289,95.6527171" id="Fill-1" fill="#21C36D"></path>
                <path d="M109.447663,24.8584497 C108.713794,23.1203907 107.772466,21.1575581 106.63638,19.2505609 C107.121863,18.441662 107.586176,17.628468 108.033554,16.8124106 C109.756734,20.921331 110.792618,25.3366307 111.165198,29.8521481 C111.153907,29.8507163 111.141206,29.8492847 111.129915,29.847853 C110.67407,28.1269741 110.120846,26.4504774 109.447663,24.8584497 M103.534373,59.4621445 C103.336794,59.7599339 103.127923,60.0348163 102.926109,60.3225839 C98.014834,66.072209 91.0571935,69.3035099 82.5965335,69.0672827 C77.4100572,68.9212514 71.1411244,67.805973 65.4748109,65.5625312 C65.2984001,65.4479968 65.1389248,65.3119872 64.9639253,65.1931578 C66.8762179,63.619742 68.7066559,61.9332235 70.5159247,60.3096989 C76.0213517,55.3661094 81.2614569,50.1161404 86.313861,44.7000967 C92.5700922,37.9941097 99.6279342,30.147074 105.041627,21.8118357 C106.771864,25.1734192 107.924884,28.9487582 108.692624,32.2931616 C104.259775,37.5975344 100.573495,43.630632 95.943066,48.8219021 C90.6069933,54.804891 84.4594311,59.9660957 79.1120682,65.9290411 C78.4290058,66.6906946 79.2771887,67.9262341 80.2015811,67.3879226 C87.3017613,63.2546637 92.8565833,57.3618707 98.1503174,51.0968409 C102.027121,46.508308 106.316019,41.3642833 109.317824,35.8566121 C110.305725,44.1274249 108.088594,52.5643124 103.534373,59.4621445 M61.7603059,67.6313081 C61.9564747,67.4967302 62.1427644,67.3506989 62.3361106,67.2132577 C63.5159457,67.7716127 64.7282405,68.2827223 65.9744061,68.7236796 C68.1802463,69.7917126 70.5229812,70.6134966 72.9814415,71.138923 C73.3639001,71.2219605 73.6588588,71.0744974 73.8409147,70.843997 C75.844941,71.250594 77.8165076,71.5755853 79.677994,71.8518995 C80.1084362,71.916325 80.5289994,71.9535487 80.9537966,71.9993624 C74.4915176,72.2556331 67.78932,70.6306768 61.7603059,67.6313081 M56.6613293,57.4477714 C62.5435697,51.6723761 68.0080694,45.3486475 73.5530123,39.4229258 C81.2910939,31.1578398 90.107398,22.7238155 96.5428626,13.2160316 C96.6275397,13.2489602 96.7164507,13.2718671 96.7983053,13.307659 C97.5618111,14.2883596 98.2547525,15.4179547 98.8460814,16.7494167 C99.0732985,17.2590946 99.9059572,16.9026064 99.7366029,16.37718 C99.5234988,15.7128807 99.2765236,15.1001218 99.0140244,14.5074065 C100.346278,15.407933 101.516235,16.5590034 102.547885,17.8689902 C95.8781468,25.4883887 89.7771571,33.842239 82.7560089,41.030702 C78.1467485,45.7466545 73.5064399,50.3895912 68.6516158,54.844978 C66.097188,57.1872057 63.2830836,59.3919923 60.6566802,61.7671487 C59.2087007,60.4328233 57.8792692,58.9825319 56.6613293,57.4477714 M57.2978194,65.0800551 C55.8611301,64.1408734 54.4808923,63.1301076 53.1782753,62.0377361 C52.9228325,61.8229842 52.7097283,61.5881887 52.4669871,61.3677101 C52.8296876,61.0427188 53.2022672,60.733476 53.5593225,60.4027581 C54.7589157,61.9962174 56.1941936,63.3663347 57.8002371,64.5460387 C57.6322941,64.7235669 57.4615285,64.8996635 57.2978194,65.0800551 M51.3774743,56.6045122 C51.4706191,56.8292859 51.5778768,57.0411744 51.6780782,57.2587897 C51.174249,57.8214398 50.6859441,58.396975 50.1934052,58.9667835 C48.9091349,57.3905042 47.8633719,55.7125758 47.0899871,53.9387249 C47.2409948,53.7740817 47.3567202,53.5750782 47.3877685,53.3402828 C47.6234533,51.6423108 47.9141782,49.9557924 48.2528868,48.2821589 C49.1504648,50.8835207 50.3331226,53.3818015 51.7811021,55.7154391 C51.4522725,55.8027716 51.1982409,56.172145 51.3774743,56.6045122 M60.4506324,21.9464135 C64.8185628,16.9126282 73.1747877,11.038447 81.197949,9.09708951 C75.3552247,14.032089 69.9965714,19.8905217 64.8086839,25.2006211 C59.7859166,30.3417824 54.7208109,35.5717079 50.083325,41.1337829 C52.2623506,34.1343015 55.5689939,27.5714825 60.4506324,21.9464135 M46.3024895,35.6461552 C46.2784977,36.3806068 46.2770864,37.1136267 46.3010783,37.8437833 C45.7633782,39.7980259 45.3597504,41.7837654 45.1353559,43.7967069 C45.1635816,41.0836741 45.5841449,38.3377127 46.3024895,35.6461552 M93.8275482,10.5187473 C93.0555746,10.6418718 92.2610205,10.8709405 91.443886,11.225997 C90.8765489,11.4708142 91.1700965,12.3870891 91.7416673,12.374204 C92.7168659,12.3527288 93.6327907,12.4400613 94.5035541,12.6132945 C86.1515632,19.9306087 78.8538029,29.0819045 71.2949546,37.0935832 C65.8389227,42.8761369 59.9270453,48.4224635 54.4145619,54.2780329 C52.7421878,51.6637861 51.3788855,48.853399 50.379695,45.8998441 C55.974033,39.8023209 61.2705896,33.3984183 66.8606938,27.3180752 C72.6836601,20.9843249 79.3548094,15.0500131 85.0295907,8.48719403 C88.2346214,8.26242033 91.2674752,8.8250704 93.8275482,10.5187473 M48.7200226,29.0504075 C50.7776777,24.6708997 53.5833144,20.6908306 56.7897564,17.5955393 C66.0915429,8.62320358 87.0688991,-0.519502053 100.329343,5.20578449 C102.820263,7.69977026 104.863805,10.5115889 106.486784,13.5453179 C105.757149,14.3084031 105.045861,15.0986902 104.33175,15.8846823 C102.549296,13.6398088 100.442246,11.7958055 98.0416484,10.9396611 C98.1390271,10.783608 98.2491074,10.6347134 98.3464861,10.4786603 C98.6188644,10.0319763 98.0416484,9.66976133 97.6831817,9.9518022 C97.4150374,10.1636908 97.1581833,10.3984862 96.8914502,10.6146699 C96.7517329,10.5846046 96.6148381,10.5416542 96.4737095,10.5187473 C93.999725,7.77851265 90.6973157,6.4227121 87.0646652,6.04045366 C87.5445025,5.44057993 88.0370414,4.8478646 88.4957094,4.23653743 C88.6467169,4.03467061 88.3644598,3.77124157 88.168291,3.89579769 C87.1634553,4.53575845 86.1783776,5.22010128 85.2045902,5.93164601 C77.7628787,5.80422653 69.3247993,9.29036626 63.8038482,13.1888297 C57.2244324,17.8331982 51.7938037,24.401744 48.4659911,31.8321608 C48.515386,30.9072959 48.6000633,29.9795675 48.7200226,29.0504075 M109.176696,14.6434161 C109.919032,13.1630595 110.595038,11.6726811 111.184955,10.1751442 C111.378302,9.68837317 110.709352,9.3848571 110.379111,9.68980485 C109.502703,10.5044305 108.661576,11.3620065 107.816216,12.2138559 C106.667428,10.3183122 105.369045,8.5244177 103.90272,6.87369116 C104.290824,6.69043618 104.526508,6.13208116 104.139816,5.78131967 C102.70736,4.4827863 101.187405,3.52642437 99.6124097,2.8163113 C98.5934612,2.01313907 97.5222951,1.26293899 96.3960888,0.577164483 C95.8513324,0.246446506 95.3926644,1.06393553 95.8979048,1.42185542 C96.0206867,1.50775619 96.1279444,1.60940544 96.2464925,1.69530622 C91.242072,0.567142726 85.8015642,1.44333061 80.4838382,2.56863074 C69.5491938,4.8822249 59.259507,10.1808709 51.5016674,18.3672147 C43.0057252,27.332392 40.2381933,39.6090442 43.0748782,50.4239515 C42.8504838,50.7575329 42.6119765,51.0796608 42.3904045,51.4161054 C41.7990756,52.3180636 42.9845559,53.2586771 43.7748762,52.7074805 C44.814994,55.734051 46.2869653,58.6231803 48.2444192,61.2431539 C47.2297045,62.4786934 46.2418042,63.735708 45.2920087,65.0184929 C44.7543087,65.7429227 45.8028942,66.8324309 46.526884,66.2898244 C47.7335336,65.3864345 48.9133688,64.4400944 50.0762685,63.4665523 C51.5355383,65.0800551 53.1839204,66.5732969 55.036939,67.9018955 C54.8139558,68.216865 54.5726259,68.5189494 54.3637556,68.8453723 C53.773838,69.7602156 54.7292787,71.1274696 55.786332,70.7552329 C56.5540716,70.4832138 57.2964081,70.1639493 58.0232203,69.8117561 C76.5731646,80.610915 99.5234988,76.0968294 109.261372,55.7268926 C109.278308,55.6911006 109.292421,55.6553086 109.307945,55.6195166 C115.637564,43.2039916 115.533128,27.0532145 109.176696,14.6434161" id="Fill-1" fill="#222222"></path>
            </g>
        </g>
    </g>
</svg>