<?xml version="1.0" encoding="UTF-8"?>
<svg width="187px" height="50px" viewBox="0 0 187 50" version="1.1" xmlns="http://www.w3.org/2000/svg" xmlns:xlink="http://www.w3.org/1999/xlink">
    <!-- Generator: Sketch 46.2 (44496) - http://www.bohemiancoding.com/sketch -->
    <title>Page 1</title>
    <desc>Created with Sketch.</desc>
    <defs>
        <polygon id="path-1" points="9.6977538 11.2467507 9.6977538 0.00474076705 0.158148642 0.00474076705 0.158148642 11.2467507 9.6977538 11.2467507"></polygon>
        <polygon id="path-3" points="5.38624867e-05 50 53.6734833 50 53.6734833 0.0659677419 5.38624867e-05 0.0659677419"></polygon>
    </defs>
    <g id="Page-1" stroke="none" stroke-width="1" fill="none" fill-rule="evenodd">
        <g id="über-uns-copy" transform="translate(-157.000000, -3812.000000)">
            <g id="kunden" transform="translate(100.000000, 3812.000000)">
                <g id="Group">
                    <g id="Page-1" transform="translate(57.000000, 0.000000)">
                        <path d="M64.4307712,22.5014382 C64.2304108,21.3664404 64.2526129,18.5068841 64.2526129,18.5068841 C64.2304108,18.594069 63.5188604,21.5190139 63.096479,22.4796419 L62.0291535,24.9245387 L64.8531527,24.9245387 L64.4307712,22.5014382 Z M65.6313093,15.625 C66.0092865,15.625 66.1652428,15.8004329 66.2318491,16.1715001 L68.677871,29.9233132 C68.7444773,30.2725841 68.6107231,30.46875 68.2105438,30.46875 L66.2540512,30.46875 C65.8538718,30.46875 65.7201177,30.2725841 65.6535114,29.9233132 L65.2089278,27.2599227 L61.0733801,27.2599227 L59.9616504,29.9233132 C59.8278963,30.2725841 59.6502795,30.46875 59.2501001,30.46875 L57.4040765,30.46875 C57.0266408,30.46875 56.8928866,30.2725841 57.0488429,29.9233132 L62.9188622,16.1715001 C63.0742769,15.8004329 63.2968394,15.625 63.6748167,15.625 L65.6313093,15.625 Z" id="Fill-1" fill="#1C1D1C"></path>
                        <path d="M76.4974817,29.2800859 C75.8736946,29.7770296 74.8399903,30.46875 73.1185477,30.46875 C71.3535972,30.46875 70.2554175,29.4311694 70.2554175,27.9613951 C70.2554175,27.8318949 70.2554175,27.7450351 70.2769093,27.5723682 L71.2026303,20.0718869 C71.2456139,19.68286 71.4180727,19.53125 71.8054497,19.53125 L73.5489083,19.53125 C73.8503181,19.53125 74.0652363,19.6396932 74.0222526,20.0718869 L73.204515,26.8590644 C73.1830232,27.0317313 73.1830232,27.0970078 73.1830232,27.2049246 C73.1830232,27.7450351 73.440925,28.0045618 74.2162032,28.0045618 C75.2708752,28.0045618 76.2175638,27.3997013 76.7129241,27.0538411 L77.5521536,20.0718869 C77.5951372,19.68286 77.767596,19.53125 78.1334812,19.53125 L79.9414153,19.53125 C80.3502841,19.53125 80.4367756,19.7260267 80.3932678,20.0718869 L79.1881531,29.7554462 C79.1451694,30.1449996 78.9727107,30.2960831 78.6068255,30.2960831 L76.9493341,30.2960831 C76.5839731,30.2960831 76.454498,30.1665829 76.4759898,29.7554462 L76.4974817,29.2800859 Z" id="Fill-3" fill="#1C1D1C"></path>
                        <path d="M87.8809695,22.7230324 C87.9033566,22.4953652 87.9033566,22.4725985 87.9033566,22.4037431 C87.9033566,21.8562313 87.3340854,21.6285642 86.4364706,21.6285642 C85.4951477,21.6285642 84.8827015,21.7879312 84.7728982,22.4953652 L84.7510442,22.6319655 C84.7291901,22.7685658 84.7291901,22.8823994 84.7291901,22.9051661 C84.7291901,23.2244554 84.8608474,23.4754445 85.2766073,23.6353668 L88.3185834,24.7748131 C89.5445419,25.231258 90.1351341,25.9836702 90.1351341,26.8954493 C90.1351341,27.0553716 90.1351341,27.100905 90.091426,27.4429611 L89.9821558,28.4691291 C89.8291775,29.92842 88.581365,31.25 85.3640234,31.25 C82.4313175,31.25 81.184038,29.9967201 81.184038,28.6740295 C81.184038,28.6057294 81.184038,28.5146625 81.205892,28.3092068 L81.2714541,27.7844618 C81.3151622,27.4201943 81.4681405,27.260272 81.8401923,27.260272 L83.4600566,27.260272 C83.8102543,27.260272 83.9195245,27.3968723 83.8758164,27.7844618 L83.8539624,28.0354509 C83.8321083,28.2181399 83.8321083,28.3092068 83.8321083,28.3319735 C83.8321083,28.9022519 84.5762118,29.1299191 85.4732936,29.1299191 C86.4801787,29.1299191 87.2903774,28.9250187 87.3777935,28.2181399 L87.3996476,28.0582176 C87.4215016,27.8755286 87.4215016,27.7389283 87.4215016,27.6706282 C87.4215016,27.3741056 87.136866,27.1236718 86.5462738,26.8954493 L83.5693268,25.7099143 C82.6503909,25.3450916 82.0811198,24.547146 82.0811198,23.5443 C82.0811198,23.4982112 82.0811198,23.3838224 82.1029738,23.1333885 L82.1685359,22.4265098 C82.3001932,20.9672189 83.3726404,19.53125 86.5681279,19.53125 C89.3910306,19.53125 90.551427,20.876152 90.551427,22.2443761 C90.551427,22.2899095 90.551427,22.3809764 90.5295729,22.6091988 L90.4858648,22.9967882 C90.4416237,23.3838224 90.2886454,23.520978 89.9165937,23.520978 L88.2967294,23.520978 C87.9689187,23.520978 87.8372615,23.3610557 87.8591155,22.9967882 L87.8809695,22.7230324 Z" id="Fill-5" fill="#1C1D1C"></path>
                        <path d="M98.5973198,22.7778914 C98.6186386,22.6234176 98.6186386,22.5351468 98.6186386,22.4910115 C98.6186386,22.0044458 98.384131,21.6287569 97.5724539,21.6287569 C96.5054703,21.6287569 95.4800845,22.291864 94.9892304,22.6454853 L94.4765375,26.9551434 C94.8607972,27.286697 95.7364309,27.9492658 96.8039345,27.9492658 C97.8074815,27.9492658 98.0425091,27.3970354 98.1064657,26.8006696 L98.5973198,22.7778914 Z M91.7867196,30.2922085 C91.4664165,30.2922085 91.2958655,30.0715316 91.3385033,29.7179104 L93.0247742,15.4185864 C93.0674119,15.0208297 93.2384829,14.84375 93.6227426,14.84375 L95.394809,14.84375 C95.8217064,14.84375 95.8643442,15.0870328 95.8217064,15.4185864 L95.2455768,20.3025426 C95.9069819,19.8165152 96.9750055,19.109811 98.6612764,19.109811 C100.475981,19.109811 101.480047,20.1260011 101.480047,21.8052984 C101.480047,21.9603105 101.480047,22.1594579 101.458729,22.3359994 L100.86076,27.2425616 C100.625733,29.209277 99.5800678,30.46875 97.4232218,30.46875 C95.6937932,30.46875 94.6689273,29.7179104 94.1349155,29.2313447 L94.0283212,29.7179104 C93.9430457,30.115667 93.8151324,30.2922085 93.4303528,30.2922085 L91.7867196,30.2922085 Z" id="Fill-7" fill="#1C1D1C"></path>
                        <path d="M107.492286,17.3478436 C107.447933,17.7278126 107.292695,17.8840463 106.89297,17.8840463 L105.049047,17.8840463 C104.649323,17.8840463 104.538438,17.7278126 104.582792,17.3478436 L104.805101,15.4256796 C104.849455,15.0228471 105.02687,14.84375 105.427135,14.84375 L107.270518,14.84375 C107.670242,14.84375 107.758949,15.0228471 107.714596,15.4256796 L107.492286,17.3478436 Z M105.95992,29.8873648 C105.915566,30.2896529 105.760329,30.46875 105.360604,30.46875 L103.516681,30.46875 C103.116956,30.46875 103.006072,30.2896529 103.050426,29.8873648 L104.271775,19.8960311 C104.31667,19.5155178 104.471908,19.336965 104.871632,19.336965 L106.715015,19.336965 C107.114739,19.336965 107.226164,19.4931987 107.18181,19.8960311 L105.95992,29.8873648 Z" id="Fill-9" fill="#1C1D1C"></path>
                        <path d="M111.42423,29.8878889 C111.379877,30.290191 111.224639,30.46875 110.824915,30.46875 L108.980991,30.46875 C108.581267,30.46875 108.470382,30.290191 108.514736,29.8878889 L110.269412,15.4256999 C110.313765,15.0228534 110.49118,14.84375 110.891445,14.84375 L112.734828,14.84375 C113.134552,14.84375 113.22326,15.0228534 113.178906,15.4256999 L111.42423,29.8878889 Z" id="Fill-11" fill="#1C1D1C"></path>
                        <path d="M116.159337,26.6677252 C116.13753,26.8448049 116.115722,26.9992788 116.115722,27.1096172 C116.115722,27.5741151 116.377942,27.9498041 117.208217,27.9498041 C118.27784,27.9498041 119.326188,27.286697 119.850096,26.9551434 L120.374536,22.6454853 C119.959665,22.291864 119.042693,21.6292951 117.993813,21.6292951 C116.989611,21.6292951 116.727391,22.1815256 116.63963,22.7778914 L116.159337,26.6677252 Z M119.632023,29.231883 C118.954931,29.7179104 117.928391,30.46875 116.093915,30.46875 C114.194017,30.46875 113.189284,29.4525599 113.189284,27.817398 C113.189284,27.6403182 113.211091,27.4411708 113.232898,27.2425616 L113.844036,22.3359994 C114.08498,20.3692839 115.045567,19.109811 117.317253,19.109811 C118.889509,19.109811 120.091041,19.8165152 120.658563,20.3030809 L121.226086,15.4191246 C121.269701,15.0208297 121.445223,14.84375 121.838287,14.84375 L123.650424,14.84375 C124.043488,14.84375 124.152524,15.0428974 124.10891,15.4191246 L122.384002,29.7179104 C122.340388,30.115667 122.14359,30.2922085 121.772333,30.2922085 L120.091041,30.2922085 C119.697445,30.2922085 119.632023,30.115667 119.632023,29.7179104 L119.632023,29.231883 Z" id="Fill-13" fill="#1C1D1C"></path>
                        <path d="M131.14069,29.2800859 C130.516368,29.7770296 129.483171,30.46875 127.761175,30.46875 C125.996718,30.46875 124.89852,29.4311694 124.89852,27.9613951 C124.89852,27.8318949 124.89852,27.7450351 124.920012,27.5723682 L125.845225,20.0718869 C125.888209,19.68286 126.061195,19.53125 126.448579,19.53125 L128.191543,19.53125 C128.492957,19.53125 128.707879,19.6396932 128.664895,20.0718869 L127.847668,26.8590644 C127.826175,27.0317313 127.826175,27.0970078 127.826175,27.2049246 C127.826175,27.7450351 128.084082,28.0045618 128.858849,28.0045618 C129.913539,28.0045618 130.860767,27.3997013 131.355612,27.0538411 L132.19538,20.0718869 C132.238364,19.68286 132.410826,19.53125 132.776193,19.53125 L134.584158,19.53125 C134.993558,19.53125 135.079527,19.7260267 135.036542,20.0718869 L133.831407,29.7554462 C133.787899,30.1449996 133.615961,30.2960831 133.249546,30.2960831 L131.59255,30.2960831 C131.226659,30.2960831 131.097706,30.1665829 131.119198,29.7554462 L131.14069,29.2800859 Z" id="Fill-15" fill="#1C1D1C"></path>
                        <path d="M140.008597,19.7039252 C140.392857,19.7039252 140.499451,19.855016 140.478133,20.2224773 L140.456814,20.7415558 C141.119259,20.2440617 142.250719,19.53125 143.93751,19.53125 C145.624301,19.53125 146.755761,20.5688806 146.755761,22.06031 C146.755761,22.168232 146.755761,22.4061868 146.734442,22.578862 L145.858808,29.9070291 C145.816171,30.2960748 145.624301,30.46875 145.240041,30.46875 L143.510092,30.46875 C143.211108,30.46875 142.976601,30.360828 143.040557,29.9070291 L143.852234,23.2922001 C143.873553,23.1189985 143.894872,22.9031545 143.894872,22.8168169 C143.894872,22.276154 143.616687,21.9955568 142.848687,21.9955568 C141.780664,21.9955568 140.734479,22.6220308 140.264944,22.9679077 L139.411149,29.9070291 C139.368511,30.2960748 139.218759,30.46875 138.834499,30.46875 L137.062433,30.46875 C136.74213,30.46875 136.571579,30.3392436 136.614217,29.9070291 L137.787795,20.2224773 C137.831472,19.855016 137.980705,19.7039252 138.364964,19.7039252 L140.008597,19.7039252 Z" id="Fill-17" fill="#1C1D1C"></path>
                        <path d="M151.436891,27.0232192 C151.413983,27.2223735 151.391075,27.4209896 151.391075,27.5092634 C151.391075,27.9958457 151.643617,28.3715476 152.538688,28.3715476 C153.662276,28.3715476 154.763516,27.7084177 155.313856,27.3768527 L155.864755,23.0670461 C155.406045,22.7134127 154.465717,22.0508209 153.363919,22.0508209 C152.286147,22.0508209 152.010138,22.6030704 151.941416,23.1994568 L151.436891,27.0232192 Z M148.316992,28.2170685 C148.316992,28.0399826 148.3399,27.8413666 148.362808,27.6642808 L149.004778,22.7575496 C149.257879,20.7907663 150.244021,19.53125 152.630319,19.53125 C154.465717,19.53125 155.658587,20.3047222 156.254742,20.8128348 L156.36928,20.2605853 C156.461469,19.8622767 156.553099,19.7077976 156.965994,19.7077976 L158.73267,19.7077976 C159.145564,19.7077976 159.28301,19.9284821 159.237195,20.2605853 L157.745968,31.907882 C157.493985,33.8746652 156.025666,35.15625 152.423592,35.15625 L149.189156,35.15625 C148.821518,35.15625 148.615349,34.9797024 148.661165,34.626069 L148.821518,33.3444842 C148.867333,32.9467138 149.097526,32.769628 149.486954,32.769628 L152.721949,32.769628 C154.07573,32.769628 154.671885,32.3944644 154.763516,31.576317 L154.99315,29.719876 C154.281898,30.1838517 153.226474,30.8911186 151.368168,30.8911186 C149.395324,30.8911186 148.316992,29.8522867 148.316992,28.2170685 L148.316992,28.2170685 Z" id="Fill-19" fill="#1C1D1C"></path>
                        <path d="M162.922425,29.872682 C162.879071,30.3020136 162.727333,30.46875 162.33662,30.46875 L160.490913,30.46875 C160.1002,30.46875 159.991816,30.3020136 160.035169,29.872682 L160.230261,27.940399 C160.273615,27.5110673 160.447559,27.34375 160.8388,27.34375 L162.705656,27.34375 C163.074163,27.34375 163.183076,27.5110673 163.139722,27.940399 L162.922425,29.872682 Z" id="Fill-21" fill="#1C1D1C"></path>
                        <path d="M167.679976,26.6677252 C167.658169,26.8448049 167.636362,26.9992788 167.636362,27.1096172 C167.636362,27.5741151 167.898582,27.9498041 168.728856,27.9498041 C169.79848,27.9498041 170.846827,27.286697 171.370735,26.9551434 L171.895175,22.6454853 C171.480304,22.291864 170.563332,21.6292951 169.514452,21.6292951 C168.510251,21.6292951 168.248031,22.1815256 168.16027,22.7778914 L167.679976,26.6677252 Z M171.152662,29.231883 C170.475571,29.7179104 169.44903,30.46875 167.614554,30.46875 C165.714656,30.46875 164.709923,29.4525599 164.709923,27.817398 C164.709923,27.6403182 164.731731,27.4411708 164.753538,27.2425616 L165.364675,22.3359994 C165.60562,20.3692839 166.566206,19.109811 168.837893,19.109811 C170.410149,19.109811 171.61168,19.8165152 172.179203,20.3030809 L172.746725,15.4191246 C172.79034,15.0208297 172.965863,14.84375 173.358927,14.84375 L175.171063,14.84375 C175.564127,14.84375 175.673164,15.0428974 175.629549,15.4191246 L173.904642,29.7179104 C173.861027,30.115667 173.664229,30.2922085 173.292973,30.2922085 L171.61168,30.2922085 C171.218084,30.2922085 171.152662,30.115667 171.152662,29.7179104 L171.152662,29.231883 Z" id="Fill-23" fill="#1C1D1C"></path>
                        <g id="Group-27" transform="translate(176.419159, 19.531250)">
                            <mask id="mask-2" fill="white">
                                <use xlink:href="#path-1"></use>
                            </mask>
                            <g id="Clip-26"></g>
                            <path d="M3.4477045,4.33535156 L6.86865031,4.33535156 L6.97867604,3.50385298 C7.00057437,3.39465554 7.00057437,3.21940696 7.00057437,3.15388849 C7.00057437,2.52001065 6.54017542,2.14820668 5.39932604,2.14820668 C4.17141747,2.14820668 3.64478943,2.60736861 3.55719613,3.35097656 L3.4477045,4.33535156 Z M9.36933232,5.75704901 C9.32553567,6.10701349 9.14981495,6.25988991 8.79890763,6.25988991 L3.18439048,6.25988991 L3.0311022,7.61606889 C3.00920387,7.83446378 2.98730554,7.9873402 2.98730554,8.11944247 C2.98730554,8.75332031 3.42580617,9.1032848 4.56612144,9.1032848 C5.81646245,9.1032848 6.34255638,8.64412287 6.40825135,7.9873402 L6.43014968,7.76894531 C6.47394633,7.39714134 6.67156537,7.22242543 7.04437102,7.22242543 L8.57939027,7.22242543 C8.97462834,7.22242543 9.06222165,7.41898082 9.04032332,7.76894531 L9.018425,8.00917969 C8.84323839,9.89057173 7.72428734,11.2467507 4.36903651,11.2467507 C1.47418463,11.2467507 0.158148642,10.1531783 0.158148642,8.4470348 C0.158148642,8.31599787 0.158148642,8.16312145 0.180046968,8.00917969 L0.749937551,3.21940696 C0.991353243,1.27302912 2.30738923,0.00474076705 5.57504675,0.00474076705 C8.38230533,0.00474076705 9.69780721,1.09831321 9.69780721,2.78208452 C9.69780721,2.93549361 9.69780721,3.08837003 9.67590888,3.21940696 L9.36933232,5.75704901 Z" id="Fill-25" fill="#1C1D1C" mask="url(#mask-2)"></path>
                        </g>
                        <g id="Group-30">
                            <mask id="mask-4" fill="white">
                                <use xlink:href="#path-3"></use>
                            </mask>
                            <g id="Clip-29"></g>
                            <path d="M51.5367584,3.68586022 L49.8443991,1.91327957 L51.7985301,1.79715054 L51.5367584,3.68586022 Z M50.4772833,11.3557527 L46.6659737,10.9095161 L46.2447691,7.08747312 L42.5858904,6.12510753 L42.4587749,2.35252688 L47.7259875,2.03908602 L51.2539804,5.73370968 L50.4772833,11.3557527 Z M46.9751444,16.0976882 C43.3162657,19.2202688 38.0398965,22.2605914 35.3300748,23.7401613 C35.3289975,23.7401613 35.3289975,23.7412366 35.3284589,23.7412366 C34.9767369,23.933172 34.6681048,24.0982258 34.412258,24.2347849 C34.4090263,24.2358602 34.4057945,24.2369355 34.4031014,24.239086 C34.2372049,24.3272581 34.0939307,24.4025269 33.9754332,24.4654301 C33.9711242,24.4665054 33.9668152,24.4697312 33.9635835,24.4718817 C33.7238954,24.5971505 33.588162,24.6648925 33.5779281,24.6702688 C32.9617412,24.9498387 32.4855969,25.6761828 32.7640659,26.5240323 L34.334696,31.6536022 L25.7328569,37.017043 L24.1218299,35.1691935 L27.9622252,31.4810215 L25.4328428,26.0880108 L20.4004707,23.1299462 L16.3747885,26.6589785 L14.5316142,24.8740323 L20.5803714,16.7659677 L25.1721484,18.5562903 L25.5610356,18.7191935 C25.7619426,18.8030645 25.9660815,18.8460753 26.1702203,18.8460753 C26.8149543,18.8460753 27.2787103,18.422957 27.4607655,18.0933871 C27.4613041,18.0923118 27.4677676,18.0815591 27.4731538,18.0734946 C27.4769242,18.067043 27.4812332,18.0595161 27.4876967,18.0514516 C27.4968533,18.0363978 27.5087031,18.0165054 27.5248618,17.9912366 C27.527555,17.9874731 27.5313253,17.9810215 27.5340185,17.9767204 C27.5501772,17.9503763 27.5706449,17.9202688 27.5927286,17.8842473 C27.5970376,17.8772581 27.6002693,17.8718817 27.6045783,17.8654301 C27.6309709,17.8234946 27.6611339,17.7772581 27.6929128,17.7256452 C27.698299,17.7175806 27.7042239,17.7079032 27.7096102,17.7003763 C27.7807086,17.589086 27.8641955,17.4579032 27.9622252,17.3057527 C27.9686887,17.2971505 27.9724591,17.2901613 27.978384,17.2815591 C28.0812613,17.122957 28.1992202,16.9423118 28.3295674,16.7428495 C28.3306446,16.7417742 28.3327991,16.7385484 28.3338764,16.7363978 C29.95406,14.272957 33.5827757,8.99876344 37.1517041,5.47241935 C38.4212429,4.21865591 39.6837796,3.18370968 40.8450548,2.5777957 L40.9619364,6.08747312 C40.4076914,6.38747312 39.7543394,6.87887097 39.038507,7.50198925 C39.0363525,7.50413978 39.0331207,7.50682796 39.0304276,7.50897849 C38.8580677,7.65951613 38.6813987,7.81865591 38.5020366,7.98370968 C38.5004208,7.98424731 38.4988049,7.98586022 38.4977276,7.98639785 C38.3156724,8.15521505 38.1314627,8.32994624 37.942944,8.51112903 C37.9402509,8.51327957 37.9380964,8.51489247 37.9359419,8.51704301 C37.5589045,8.88102151 37.1721718,9.26919355 36.7784371,9.67672043 C36.7762826,9.67833333 36.7735894,9.68048387 36.7714349,9.68370968 C36.3771615,10.0912366 35.975886,10.5191935 35.572456,10.9589785 C35.5708401,10.9605914 35.5686856,10.9622043 35.5676083,10.9643548 C35.1641783,11.4041398 34.7585938,11.8562903 34.3540865,12.3148925 C34.3513934,12.3181183 34.347623,12.3224194 34.3443913,12.3272581 C33.9414999,12.7837097 33.5402243,13.2466129 33.1454123,13.7089785 C33.1416419,13.7138172 33.1373329,13.7186559 33.1335626,13.7234946 C32.740905,14.183172 32.3541724,14.6428495 31.977135,15.0966129 C31.9690556,15.1052151 31.9615149,15.1148925 31.9539741,15.122957 C31.5785526,15.5751075 31.2122877,16.0197312 30.8605656,16.450914 C30.8546408,16.4595161 30.8487159,16.4659677 30.8433296,16.4740323 C30.6655834,16.6901613 30.4932235,16.9046774 30.3240953,17.1138172 C30.3235566,17.1148925 30.3224794,17.1154301 30.3219408,17.1165054 C30.1533512,17.3245699 29.9890706,17.5283333 29.8301763,17.7277957 C29.8274831,17.7320968 29.8242514,17.7353226 29.8220969,17.7385484 C29.6906724,17.9030645 29.5614025,18.0638172 29.4364415,18.2213441 L30.6838967,19.2536022 L30.7339888,19.1928495 C30.9429752,18.9294086 31.1487299,18.6718817 31.3561005,18.4154301 C31.4051154,18.3536022 31.4535916,18.2939247 31.5015292,18.233172 C31.7040522,17.983172 31.903882,17.7353226 32.1037118,17.4906989 C32.1344134,17.4536022 32.1645764,17.417043 32.1947394,17.3804839 C32.3724856,17.1627419 32.5496932,16.9476882 32.7252849,16.7353226 C32.771068,16.678871 32.8173898,16.622957 32.8631729,16.5686559 C33.0549233,16.3358602 33.2472124,16.106828 33.4368084,15.8794086 C33.4820529,15.8261828 33.5262201,15.7740323 33.570926,15.7218817 C33.7341293,15.5267204 33.896794,15.3342473 34.0583815,15.1444624 C34.0977011,15.0982258 34.1375593,15.050914 34.1774176,15.0046774 C34.3621659,14.7880108 34.5452984,14.5745699 34.7268149,14.3648925 C34.7742139,14.3095161 34.8221515,14.2546774 34.8706278,14.1993011 C35.0343697,14.0095161 35.1959572,13.8240323 35.3559288,13.6417742 C35.3812441,13.6127419 35.4076368,13.5826344 35.4324135,13.5541398 C35.6101597,13.3525269 35.7846742,13.1562903 35.9570341,12.9622043 C36.0049717,12.9089785 36.0518321,12.856828 36.0992311,12.8030645 C36.2715911,12.6116667 36.4412579,12.4224194 36.6082316,12.2396237 C36.6286993,12.217043 36.6491671,12.1960753 36.6690962,12.172957 C36.821527,12.0062903 36.972342,11.8428495 37.1199252,11.683172 C37.1630152,11.6358602 37.2061052,11.5906989 37.2475793,11.545 C37.4070123,11.3734946 37.5648294,11.2052151 37.7188761,11.0428495 C37.7495777,11.0122043 37.7786634,10.9804839 37.8088264,10.9493011 C37.9440213,10.8073656 38.076523,10.6697312 38.2057929,10.5353226 C38.2408036,10.500914 38.2747369,10.4643548 38.3081317,10.4294086 C38.4562535,10.2794086 38.5989891,10.1326344 38.7411861,9.99177419 C38.7729649,9.95951613 38.8047438,9.92833333 38.8354454,9.89822581 C38.9614836,9.77188172 39.0842901,9.65037634 39.2044035,9.53370968 C39.2264871,9.51274194 39.2485707,9.49016129 39.2706543,9.46973118 C39.4047719,9.34016129 39.5345805,9.21650538 39.6606187,9.09768817 C39.6913203,9.06973118 39.7209447,9.04284946 39.7494918,9.01489247 C39.87553,8.89876344 39.9977979,8.78586022 40.1157567,8.68102151 C40.7244028,8.13747312 41.2280171,7.74876344 41.6034386,7.53854839 L44.7554713,8.36811828 L45.1298156,11.7638172 C44.9186747,12.0767204 44.5588733,12.4783333 44.0714178,12.9514516 C43.9502272,13.0691935 43.8209572,13.1923118 43.6830692,13.3191935 C43.6825306,13.3191935 43.681992,13.3191935 43.681992,13.3197312 C43.5457199,13.4455376 43.4013684,13.5761828 43.2505535,13.7105914 C43.2467831,13.7132796 43.2430127,13.717043 43.2392423,13.7202688 C42.9397669,13.9858602 42.612283,14.2665054 42.2578678,14.5616667 C42.2449408,14.5718817 42.2325525,14.5837097 42.2196255,14.5928495 C41.8716738,14.8826344 41.4978681,15.1853226 41.1019789,15.5003763 C41.0804339,15.517043 41.0594275,15.5326344 41.0389598,15.5493011 C40.6463022,15.8595161 40.2315611,16.1815591 39.7958136,16.5116667 C39.7667278,16.5347849 39.7381807,16.556828 39.7080177,16.578871 C39.4920291,16.7428495 39.2717316,16.9100538 39.0455091,17.0777957 C39.029889,17.0885484 39.0137303,17.100914 38.9981101,17.1127419 C38.7875078,17.2702688 38.5715192,17.4294086 38.3522989,17.5901613 C38.316211,17.6186559 38.2806618,17.6439247 38.2440353,17.6713441 C38.0145811,17.8380108 37.7813566,18.0084409 37.543823,18.1804839 C37.5055806,18.2079032 37.466261,18.2358602 37.42748,18.2632796 C37.2147232,18.4175806 36.998196,18.5718817 36.7789757,18.7277957 C36.7385788,18.756828 36.6987206,18.7853226 36.6583237,18.8148925 C36.4186356,18.9847849 36.1746386,19.1557527 35.9279484,19.3294086 C35.8703155,19.3702688 35.8110668,19.411129 35.7523567,19.4519892 C35.533675,19.6052151 35.3112229,19.7605914 35.0860777,19.9165054 C35.0456809,19.9439247 35.0058226,19.9713441 34.9654257,19.9998387 C34.7171197,20.1708065 34.4650432,20.3428495 34.2113509,20.5165054 C34.1359435,20.5675806 34.0599973,20.6191935 33.9840512,20.6708065 C33.7497494,20.8304839 33.5132931,20.9901613 33.2746823,21.1503763 C33.0495371,21.300914 32.8233147,21.4530645 32.5949377,21.6041398 L32.5238392,21.6525269 L33.4529671,22.9777957 L33.4928254,22.9503763 C33.6172477,22.8686559 33.7443632,22.783172 33.8720173,22.6971505 C33.9107983,22.6713441 33.9506565,22.645 33.9894375,22.6197312 C34.077772,22.5595161 34.1671837,22.4998387 34.257134,22.439086 C34.3109965,22.4030645 34.3643204,22.3686559 34.4176443,22.3320968 C34.4968221,22.2783333 34.5770772,22.2234946 34.6573323,22.1702688 L34.8345399,22.0503763 C34.9094088,21.9998387 34.9853549,21.9476882 35.061301,21.8960753 C35.1253973,21.8530645 35.1900323,21.8100538 35.2546673,21.7648925 C35.3370769,21.7089785 35.4200251,21.6525269 35.5018961,21.5966129 C35.6317047,21.5073656 35.7615133,21.4181183 35.8934764,21.3277957 C35.9473389,21.2912366 36.0006627,21.2536022 36.0550639,21.2165054 C36.143937,21.1546774 36.2338873,21.0928495 36.323299,21.0310215 C36.3733912,20.9960753 36.4240219,20.9616667 36.4751913,20.9267204 C36.5705279,20.8595161 36.6664031,20.7933871 36.7628169,20.7251075 C36.8021365,20.6993011 36.8403789,20.6718817 36.8791599,20.6444624 C36.9858076,20.5697312 37.092994,20.4955376 37.2001803,20.4197312 C37.2152618,20.4089785 37.2303433,20.3987634 37.2459634,20.3880108 C37.7625047,20.0251075 38.2838936,19.6525269 38.8052824,19.2756452 C38.8101301,19.2713441 38.814439,19.2681183 38.8192867,19.2654301 C42.1393704,16.8584409 45.3905101,14.2476882 46.5270085,12.5213441 L49.9935982,12.9261828 C49.287461,13.9546774 48.22637,15.0310215 46.9751444,16.0976882 L46.9751444,16.0976882 Z M21.5962179,29.6089785 L18.7889051,28.0476882 L19.6674023,26.5299462 L22.9637865,28.4643548 L24.6329849,31.8718817 L23.0731273,32.4933871 L21.5962179,29.6089785 Z M20.7462679,34.0073656 L19.5278984,31.6304839 L17.2128887,30.3417742 L17.8150713,29.1132796 L20.5690603,30.6460753 L22.0276564,33.4939247 L20.7462679,34.0073656 Z M13.1527345,37.7541398 L16.2535979,31.4299462 L18.5686075,32.7181183 L19.786977,35.0955376 L13.1527345,37.7541398 Z M40.7529499,0.833709677 L40.619371,0.891774194 C39.107451,1.55413978 37.4554885,2.88908602 35.8239938,4.52134409 C32.7312098,3.01811828 29.261927,2.17134409 25.5965848,2.17134409 C12.6642017,2.17134409 2.14270358,12.6734946 2.14270358,25.5810215 C2.14270358,30.0433871 3.39985402,34.2186559 5.58074611,37.7708065 L6.72801708,36.1863978 L6.72693983,36.183172 C4.95109364,33.0466129 3.93847889,29.4294086 3.93847889,25.5810215 C3.93847889,13.6616667 13.6541942,3.96435484 25.5965848,3.96435484 C28.776626,3.96435484 31.7972343,4.65629032 34.519983,5.89123656 C33.8585516,6.61865591 33.2078928,7.37887097 32.578779,8.14768817 C30.4194319,7.28317204 28.0651026,6.80252688 25.5965848,6.80252688 C15.2059725,6.80252688 6.78187957,15.2089785 6.78187957,25.5810215 C6.78187957,28.9084409 7.65283598,32.0304839 9.17283535,34.7417742 L5.38624867e-05,50.0003763 L15.7095867,41.5584409 C18.5826118,43.3342473 21.9684077,44.3622043 25.5965848,44.3622043 C35.9866585,44.3622043 44.4102128,35.9546774 44.4102128,25.5820968 C44.4102128,23.8525269 44.1721406,22.1595161 43.7320841,20.5530645 C44.5545643,19.9955376 45.3721968,19.4122043 46.1607436,18.8159677 C46.8674194,20.945 47.2546907,23.2181183 47.2546907,25.5820968 C47.2546907,37.500914 37.5378981,47.1998387 25.5965848,47.1998387 C21.3737658,47.1998387 17.4288773,45.9869355 14.0920963,43.8906989 C14.0856328,43.8863978 14.0802465,43.8837097 14.0732444,43.8794086 L12.3130183,44.8654301 C16.0909331,47.4665054 20.6687059,48.9912366 25.5965848,48.9912366 C38.5278906,48.9923118 49.050466,38.4901613 49.050466,25.5820968 C49.050466,22.7928495 48.5533153,20.117043 47.6521959,17.6342473 C49.488368,16.1073656 51.0207558,14.5245699 51.8292317,13.0326344 L51.899253,12.9036022 L53.6734833,0.0659677419 L40.7529499,0.833709677 Z" id="Fill-28" fill="#1D1C1A" mask="url(#mask-4)"></path>
                        </g>
                        <polygon id="Fill-31" fill="#1D1C1A" points="24.979704 23.00525 27.1399836 24.7222294 28.4252322 27.34375 29.6633985 24.2890048 27.8331964 21.875"></polygon>
                    </g>
                </g>
            </g>
        </g>
    </g>
</svg>