<svg width="183" height="30" viewBox="0 0 183 30" xmlns="http://www.w3.org/2000/svg"><title>auxmoney</title><desc>Created with Sketch.</desc><path d="M57.523 11.56l-3.083 4.128 1.927 2.642c1.266 1.596 2.422 2.257 4.734 2.257h3.413c.275 0 .495-.22.495-.55v-3.083c0-.275-.22-.55-.495-.55l-2.477-.11c-.881-.055-1.211-.385-1.817-1.046l-2.697-3.688zm-7.927-2.312l3.083-4.073-1.761-2.312c-1.266-1.651-2.422-2.312-4.734-2.312h-3.963c-.275 0-.495.22-.495.55v3.083c0 .275.22.55.495.55l3.028.11c.881.055 1.211.385 1.817 1.046l2.532 3.358zm15.468-8.147c0-.33-.22-.55-.495-.55h-3.413c-2.312 0-3.413.716-4.734 2.257l-9.358 12.385c-.606.661-.936.991-1.817 1.046l-1.211.165c-.275 0-.495.22-.495.55v3.083c0 .275.22.55.495.55h1.706c2.312 0 3.468-.661 4.734-2.257l9.358-12.385c.606-.661.991-.991 1.817-1.046l2.917-.11c.275 0 .495-.22.495-.55v-3.138zm117.523 5.009v-4.679c0-.771-.165-1.046-.881-1.046l-6 .33c-.55.055-.771.22-.771.771v2.092c0 .495.11.826.661.826 1.817 0 2.037.385 2.037 1.541v4.073c0 4.404-1.486 6.936-4.514 6.936-2.147 0-2.972-1.266-2.972-3.028v-12.495c0-.771-.165-1.046-.826-1.046l-6.055.33c-.55.055-.771.22-.771.771v2.092c0 .495.11.826.661.826 1.817 0 2.037.385 2.037 1.541v8.477c0 5.119 2.477 6.716 6.11 6.716 2.642 0 4.954-.661 6.33-2.202v1.376c0 4.294-2.257 5.835-5.45 5.835-.991 0-1.927-.165-2.752-.44.22-.385.385-.881.385-1.376 0-1.596-1.266-2.587-2.642-2.587-1.486 0-2.697 1.046-2.697 2.477 0 4.734 3.963 5.78 7.872 5.78 6.11 0 10.239-3.028 10.239-10.183v-13.706zm-29.505 3.523c2.367 0 3.798-.936 3.798-3.083 0-2.092-1.266-2.917-3.578-2.917-2.477 0-3.743 1.982-4.018 5.505 1.321.275 2.697.495 3.798.495zm1.486 7.321c1.927 0 3.853-.385 4.954-.826.661-.275 1.101-.55 1.431-.55.275 0 .385.165.385.55v2.422c0 .44-.165.716-.771 1.046-1.431.716-4.018 1.266-6.44 1.266-7.156 0-10.128-4.294-10.128-10.294 0-6.22 3.138-10.569 9.248-10.569 5.174 0 8.092 2.422 8.092 6.661 0 3.798-2.367 6.385-7.872 6.385-1.431 0-2.862-.165-4.183-.495.44 3.083 1.872 4.404 5.284 4.404zm-30.661-11.284v9.743c-.055 1.321-.55 1.486-1.761 1.486h-.495c-.661 0-.771.165-.771.661v2.257c0 .661.165.771.771.771h9.413c.55 0 .771-.165.771-.771v-2.257c0-.44-.165-.661-.771-.661h-.495c-1.321 0-1.761-.22-1.761-1.872v-2.752c0-5.064 1.486-8.037 4.459-8.037 1.982 0 2.752 1.266 2.752 3.083v9.138c0 3.523 2.147 4.349 4.018 4.349 1.706 0 2.367-.165 2.972-.44.385-.165.495-.55.495-.881v-2.257c0-.33-.11-.44-.385-.385-.385 0-.495.165-1.211.165-.716 0-1.046-.55-1.046-1.761v-8.642c0-5.009-2.532-6.606-5.835-6.606-3.028 0-5.615 1.156-6.606 3.798v-2.367c0-.771-.165-1.046-.771-1.046l-5.78.33c-.606.055-.771.22-.771.771v2.092c0 .495.11.826.661.826 1.706 0 2.037.385 2.147 1.266zm-13.486-2.092c-3.028 0-4.404 2.587-4.404 6.936 0 4.294 1.431 6.936 4.404 6.936 3.083 0 4.459-2.587 4.459-6.936.055-4.294-1.376-6.936-4.459-6.936zm0 17.505c-6.881 0-9.633-4.899-9.633-10.569 0-5.67 2.752-10.514 9.633-10.514 6.881 0 9.633 4.844 9.633 10.514.055 5.67-2.752 10.569-9.633 10.569zm-31.596-16.844c1.761 0 2.422 1.266 2.422 3.083v8.202c-.055 1.156-.385 1.376-1.156 1.376h-.385c-.606 0-.716.165-.716.661v2.257c0 .661.165.771.716.771h8.532c.606 0 .771-.165.771-.771v-2.257c0-.44-.11-.661-.771-.661h-.385c-1.266 0-1.706-.22-1.706-1.872v-3.413c.055-4.679 1.486-7.376 4.183-7.376 1.761 0 2.422 1.266 2.422 3.083v9.138c0 3.523 2.147 4.349 4.073 4.349 1.706 0 2.367-.165 2.917-.44.44-.165.495-.55.495-.881v-2.257c0-.33-.11-.44-.385-.385-.385 0-.495.165-1.156.165-.716 0-1.101-.55-1.101-1.761v-8.642c0-5.009-2.367-6.606-5.56-6.606-2.972 0-5.394 1.101-6.33 3.688-.771-2.697-2.697-3.688-5.174-3.688-2.642 0-4.899.881-6 3.028v-1.596c0-.771-.165-1.046-.881-1.046l-6 .33c-.55.055-.771.22-.771.771v2.092c0 .495.165.826.661.826 1.872 0 2.037.385 2.037 1.541v9.028c0 1.596-.44 1.872-1.706 1.872h-.385c-.606 0-.771.165-.771.661v2.312c0 .661.22.771.771.771h8.532c.55 0 .716-.165.716-.771v-2.257c0-.44-.11-.661-.716-.661h-.385c-.881 0-1.156-.22-1.156-1.872v-3.083c.165-4.844 1.541-7.706 4.349-7.706zm-38.862 12.771c.661 0 .826-.165 1.211-.165.275-.055.385.055.385.385v2.257c0 .385-.11.771-.55.881-.55.275-1.211.44-2.917.44-1.486 0-3.083-.495-3.743-2.257-1.321 1.872-3.743 2.587-6.606 2.587-3.578 0-6.11-1.541-6.11-6.716v-8.422c0-1.156-.22-1.541-2.037-1.541-.55 0-.661-.33-.661-.826v-2.147c0-.55.165-.771.771-.771l6.055-.33c.661 0 .826.33.826 1.046v12.495c0 1.761.771 3.028 2.972 3.028 3.028 0 4.514-2.532 4.514-6.936v-4.073c-.055-1.156-.275-1.541-2.147-1.541-.55 0-.661-.33-.661-.826v-2.092c0-.55.165-.771.771-.771l6-.33c.661 0 .881.33.881 1.046v14.092c0 .991.385 1.486 1.046 1.486zm-27.908-4.844c0 3.193-1.817 5.009-4.514 5.009-1.927 0-2.642-.881-2.642-2.202 0-2.477 2.367-3.193 5.89-3.193h1.321v.385h-.055zm7.486 7.321v-2.257c0-.33-.165-.44-.385-.385-.385 0-.495.165-1.156.165-.661 0-.991-.55-1.046-1.596v-7.872c0-6.11-2.917-7.541-8.147-7.541-5.119 0-7.872 1.431-7.872 5.064 0 1.761 1.156 2.862 2.532 2.862 1.541 0 2.862-1.211 2.862-3.028l-.055-.661c.771-.22 1.596-.33 2.422-.33 2.422 0 3.303 1.046 3.303 3.468v1.046h-1.321c-6.275 0-10.679 1.211-10.679 6.716 0 3.798 2.147 5.67 6.22 5.67 2.752 0 4.844-.881 6.11-2.257.661 1.761 2.257 2.257 3.743 2.257 1.706 0 2.367-.165 2.917-.44.44-.11.55-.495.55-.881z"/></svg>