<svg width="125" height="46" viewBox="0 0 125 46" xmlns="http://www.w3.org/2000/svg"><title>bunte</title><desc>Created with Sketch.</desc><path d="M24 24c.183.315.35.648.5 1-.15-.352-.317-.685-.5-1zm-1-2c-.303.197-.632.368-1 .5.368-.132.697-.303 1-.5zm1.5-2c-.148.353-.315.686-.5 1 .185-.314.352-.647.5-1zm-1.5 4c.188.152.354.318.5.5-.146-.182-.313-.348-.5-.5zm-1-1c.362.15.69.317 1 .5-.293-.183-.638-.367-1-.5zm1 0c.172.154.344.327.5.5-.156-.173-.313-.346-.5-.5zm-3-.59c.782 0 1.446.213 2 .59-.554-.377-1.218-.59-2-.59.693 0 1.287-.148 1.792-.41-.505.262-1.099.41-1.792.41zm3-.91c.183-.159.354-.329.5-.5-.159.171-.317.341-.5.5zm.5 3c-.161-.167-.321-.333-.5-.5.179.167.357.317.5.5zm-2.168-2.348l.227-.074c.288-.105.546-.242.783-.4.113-.074.227-.158.33-.253.155-.137.299-.284.422-.432l.237-.326c.103-.168.196-.347.278-.537.268-.632.391-1.369.391-2.169v-12.213c0-2.78-1.411-5.633-4.47-5.643l-19.53-.105v46h18.778c3.142 0 5.222-2.411 5.222-4.991v-13.729c0-.937-.144-1.8-.474-2.537-.093-.2-.196-.39-.309-.569l-.247-.347-.288-.316-.33-.274-.175-.126c-.185-.116-.381-.232-.597-.316-.577-.242-1.267-.379-2.081-.379.69 0 1.308-.095 1.833-.263zm-5.779 12.898c0 1.348-.979 2.106-2.348 2.158h-4.542v-10.687h4.542c1.514 0 2.348.979 2.348 2.411v6.117zm0-18.983c-.021 1.39-1.102 2.211-2.369 2.211l-4.522.011v-10.034l4.542-.011c1.102 0 2.348.59 2.348 1.895v5.928zm36.447 24.722v-40.789h-8.944l-.064 34.811c0 2.905-6.282 3.011-6.272.105l.085-34.905h-8.806v41.021c0 2.316 3.045 4.968 5.271 4.968h13.736c2.417-.011 4.994-2.505 4.994-5.211zm12.137-14.115l6.672 19.326h9.19v-45.989h-8.904v19.453l-6.959-19.453-9.137-.011v46h9.137zm32.698-17.83h6.165v-8.844h-21v8.844h6.102v37.156h8.733zm28.155 28.301h-10.622v-9.434h8.782v-9.581h-8.782v-9.286h10.591v-8.844h-19.958v46h20l-.01-8.855z"/></svg>