<?xml version="1.0" encoding="UTF-8"?>
<svg width="103px" height="50px" viewBox="0 0 103 50" version="1.1" xmlns="http://www.w3.org/2000/svg" xmlns:xlink="http://www.w3.org/1999/xlink">
    <!-- Generator: Sketch 46.2 (44496) - http://www.bohemiancoding.com/sketch -->
    <title>Page 1</title>
    <desc>Created with Sketch.</desc>
    <defs>
        <polygon id="path-1" points="0.0984131737 0.20239521 8.94991018 0.20239521 8.94991018 22.7001796 0.0984131737 22.7001796 0.0984131737 0.20239521"></polygon>
        <polygon id="path-3" points="0 49.7976048 102.662874 49.7976048 102.662874 0.299401198 0 0.299401198"></polygon>
    </defs>
    <g id="Page-1" stroke="none" stroke-width="1" fill="none" fill-rule="evenodd">
        <g id="über-uns-copy" transform="translate(-979.000000, -3812.000000)">
            <g id="kunden" transform="translate(100.000000, 3812.000000)">
                <g id="Group-4" transform="translate(780.000000, 0.000000)">
                    <g id="Page-1" transform="translate(99.000000, 0.000000)">
                        <g id="Group-3" transform="translate(12.874251, 0.097006)">
                            <mask id="mask-2" fill="white">
                                <use xlink:href="#path-1"></use>
                            </mask>
                            <g id="Clip-2"></g>
                            <path d="M4.66607784,22.7001796 C1.85769461,22.7001796 0.0984131737,21.2816168 0.0984131737,18.0756287 L0.0984131737,4.9402994 C0.0984131737,1.7911976 1.85769461,0.202275449 4.60919162,0.202275449 C7.1058982,0.202275449 8.92176647,1.08161677 8.92176647,4.99658683 C8.92176647,6.07473054 8.80829341,7.15317365 8.69482036,7.97562874 L5.8295509,7.74868263 C5.94272455,6.98281437 6.02775449,6.1888024 6.02775449,5.42233533 C6.02775449,3.37982036 5.54541916,3.09568862 4.86488024,3.09568862 C4.18374251,3.09568862 3.87176647,3.37982036 3.87176647,4.48610778 L3.87176647,18.3876048 C3.87176647,19.381018 4.12685629,19.8343114 4.97805389,19.8343114 C5.60230539,19.8343114 6.02775449,19.4088623 6.02775449,17.3382036 C6.02775449,16.6570659 5.94272455,15.8343114 5.8295509,15.0112575 L8.72356287,14.7843114 C8.83673653,15.5792216 8.94991018,16.5148503 8.94991018,17.7920958 C8.94991018,21.7920958 7.13434132,22.7001796 4.66607784,22.7001796" id="Fill-1" fill="#1D1D1B" mask="url(#mask-2)"></path>
                        </g>
                        <path d="M29.9969162,16.385479 L29.3157784,7.70404192 L28.4364371,16.385479 L29.9969162,16.385479 Z M34.4508084,22.4561377 L30.6493114,22.4561377 L30.3651796,19.4208084 L28.1244611,19.4208084 L27.8403293,22.4561377 L24.6912275,22.4561377 L27.5002096,0.667814371 L31.5567964,0.667814371 L34.4508084,22.4561377 Z" id="Fill-4" fill="#1D1D1B"></path>
                        <path d="M41.9423952,3.67556886 L41.5453892,3.67556886 L41.5453892,11.6477246 L41.9705389,11.6477246 C42.8220359,11.6477246 43.3891018,10.7965269 43.3891018,7.53335329 C43.3891018,4.49802395 42.8786228,3.67556886 41.9423952,3.67556886 M42.3965868,14.6549102 L41.5453892,14.6549102 L41.5453892,22.4564072 L37.7717365,22.4564072 L37.7717365,0.667784431 L42.2543713,0.667784431 C45.4888024,0.667784431 47.0774251,2.39832335 47.0774251,7.56209581 C47.0774251,13.0094012 45.0633533,14.6549102 42.3965868,14.6549102" id="Fill-6" fill="#1D1D1B"></path>
                        <mask id="mask-4" fill="white">
                            <use xlink:href="#path-3"></use>
                        </mask>
                        <g id="Clip-9"></g>
                        <polygon id="Fill-8" fill="#1D1D1B" mask="url(#mask-4)" points="50.4838323 22.5131737 54.2571856 22.5131737 54.2571856 0.667664671 50.4838323 0.667664671"></polygon>
                        <polygon id="Fill-10" fill="#1D1D1B" mask="url(#mask-4)" points="67.3935629 3.67556886 64.414521 3.67556886 64.414521 22.5132934 60.6408683 22.5132934 60.6408683 3.67556886 57.6908683 3.67556886 57.6908683 0.667784431 67.3935629 0.667784431"></polygon>
                        <path d="M74.3753892,16.385479 L73.6942515,7.70404192 L72.8149102,16.385479 L74.3753892,16.385479 Z M78.8292814,22.4561377 L75.0277844,22.4561377 L74.7436527,19.4208084 L72.5026347,19.4208084 L72.2188024,22.4561377 L69.0694012,22.4561377 L71.8783832,0.667814371 L75.9352695,0.667814371 L78.8292814,22.4561377 Z" id="Fill-11" fill="#1D1D1B" mask="url(#mask-4)"></path>
                        <polygon id="Fill-12" fill="#1D1D1B" mask="url(#mask-4)" points="89.8103593 22.5132635 82.150479 22.5132635 82.150479 0.667754491 85.9238323 0.667754491 85.9238323 19.4207485 89.8103593 19.4207485"></polygon>
                        <path d="M17.3701796,30.6760479 L16.9731737,30.6760479 L16.9731737,38.6482036 L17.3983234,38.6482036 C18.2498204,38.6482036 18.8168862,37.797006 18.8168862,34.5338323 C18.8168862,31.498503 18.3064072,30.6760479 17.3701796,30.6760479 M17.8243713,41.6553892 L16.9731737,41.6553892 L16.9731737,49.4568862 L13.199521,49.4568862 L13.199521,27.6682635 L17.6821557,27.6682635 C20.9165868,27.6682635 22.5052096,29.3988024 22.5052096,34.5625749 C22.5052096,40.0098802 20.4911377,41.6553892 17.8243713,41.6553892" id="Fill-13" fill="#1D1D1B" mask="url(#mask-4)"></path>
                        <polygon id="Fill-14" fill="#1D1D1B" mask="url(#mask-4)" points="25.9113772 49.5137725 29.6847305 49.5137725 29.6847305 27.6682635 25.9113772 27.6682635"></polygon>
                        <path d="M39.0485329,31.3852395 C39.0485329,30.5340419 38.5661976,30.1933234 38.1123054,30.1933234 C37.5449401,30.1933234 37.1476347,30.5340419 37.1476347,31.3852395 L37.1476347,45.6840419 C37.1476347,46.506497 37.5167964,46.8753593 38.1410479,46.8753593 C38.7081138,46.8753593 39.0485329,46.5346407 39.0485329,45.7121856 L39.0485329,31.3852395 Z M42.7937425,44.9747605 C42.7937425,48.5493114 40.6658982,49.7978144 38.1410479,49.7978144 C35.559012,49.7978144 33.3742814,48.463982 33.3742814,44.9747605 L33.3742814,32.1226647 C33.3742814,28.5762575 35.5871557,27.2996108 38.1410479,27.2996108 C40.6940419,27.2996108 42.7937425,28.5481138 42.7937425,32.1226647 L42.7937425,44.9747605 Z" id="Fill-15" fill="#1D1D1B" mask="url(#mask-4)"></path>
                        <polygon id="Fill-16" fill="#1D1D1B" mask="url(#mask-4)" points="55.2216168 49.5136228 52.4407784 49.5136228 49.6323952 38.3073353 49.6323952 49.5136228 46.5114371 49.5136228 46.5114371 27.6681138 49.6886826 27.6681138 52.1003593 37.3429641 52.1003593 27.6681138 55.2216168 27.6681138"></polygon>
                        <polygon id="Fill-17" fill="#1D1D1B" mask="url(#mask-4)" points="66.7979641 49.4567665 59.1380838 49.4567665 59.1380838 27.6681437 66.7698204 27.6681437 66.7698204 30.6759281 62.9114371 30.6759281 62.9114371 36.7187425 66.1177246 36.7187425 66.1177246 39.7828144 62.9114371 39.7828144 62.9114371 46.4495808 66.7979641 46.4495808"></polygon>
                        <polygon id="Fill-18" fill="#1D1D1B" mask="url(#mask-4)" points="77.9486228 49.4567665 70.2887425 49.4567665 70.2887425 27.6681437 77.920479 27.6681437 77.920479 30.6759281 74.0620958 30.6759281 74.0620958 36.7187425 77.2683832 36.7187425 77.2683832 39.7828144 74.0620958 39.7828144 74.0620958 46.4495808 77.9486228 46.4495808"></polygon>
                        <path d="M85.7236826,30.6760479 L85.2132036,30.6760479 L85.2132036,37.5697605 L85.6955389,37.5697605 C86.5467365,37.5697605 87.1141018,36.8886228 87.1141018,33.9664671 C87.1141018,31.1296407 86.5467365,30.6760479 85.7236826,30.6760479 L85.7236826,30.6760479 Z M87.0859581,49.5134731 C86.9155988,49.1164671 86.8299701,48.6622754 86.8021257,48.208982 C86.7449401,46.3080838 86.7449401,45.5988024 86.7167964,44.2083832 C86.6599102,40.9461078 86.2063174,40.6053892 85.7524251,40.6053892 L85.2132036,40.6053892 L85.2132036,49.5134731 L81.4398503,49.5134731 L81.4398503,27.6682635 L86.1497305,27.6682635 C89.1850599,27.6682635 90.8024251,29.3988024 90.8024251,33.3994012 C90.8024251,36.4347305 90.5470359,38.0520958 88.6464371,38.9883234 C90.2913473,40.038024 90.4614072,42.591018 90.4614072,43.9814371 L90.4614072,45.6272455 C90.4614072,47.6697605 90.575479,48.4640719 90.8305689,49.5134731 L87.0859581,49.5134731 Z" id="Fill-19" fill="#1D1D1B" mask="url(#mask-4)"></path>
                        <path d="M102.662964,44.804491 C102.662964,48.294012 100.847395,49.7976048 98.0952994,49.7976048 C95.1728443,49.7976048 94.0096707,48.0101796 94.0096707,44.8607784 C94.0096707,43.6691617 94.1237425,42.591018 94.2366168,41.7967066 L97.0737425,42.1377246 C96.9605689,42.9601796 96.8755389,43.8113772 96.8755389,44.5488024 C96.8755389,46.3931138 97.1878144,46.8754491 97.8680539,46.8754491 C98.4923054,46.8754491 98.8327246,46.3931138 98.8327246,45.0598802 L98.8327246,44.4637725 C98.8327246,42.8467066 98.3791317,41.3715569 96.534521,39.1302395 C94.6908084,36.9173653 93.9533832,35.1299401 93.9533832,32.6332335 L93.9533832,32.2928144 C93.9533832,29.4556886 95.0596707,27.2997006 98.2941018,27.2997006 C101.386317,27.2997006 102.350689,29.257485 102.350689,32.2359281 C102.350689,33.3143713 102.265958,34.0805389 102.151886,34.9311377 L99.2869162,34.5907186 C99.3719461,33.8532934 99.4285329,33.6832335 99.4285329,32.5479042 C99.4285329,30.6473054 99.1447006,30.1931138 98.549491,30.1931138 C97.9252395,30.1931138 97.7261377,30.6191617 97.7261377,31.8958084 L97.7261377,32.3497006 C97.7261377,33.5982036 98.2084731,34.8745509 99.5417066,36.5766467 C101.414461,38.9883234 102.662964,41.598503 102.662964,44.3787425 L102.662964,44.804491 Z" id="Fill-20" fill="#1D1D1B" mask="url(#mask-4)"></path>
                        <polygon id="Fill-21" fill="#1D1D1B" mask="url(#mask-4)" points="0 49.5260479 7.5748503 49.5260479 7.5748503 0.661377246 0 0.661377246"></polygon>
                    </g>
                </g>
            </g>
        </g>
    </g>
</svg>