<svg width="86" height="86" viewBox="0 0 86 86" xmlns="http://www.w3.org/2000/svg"><title>design-bestseller</title><desc>Created with Sketch.</desc><path d="M13.288 71.633h-2.352v3.434h2.309c.635 0 1.097-.173 1.429-.462.332-.289.505-.707.505-1.255 0-.505-.173-.88-.505-1.212-.332-.289-.794-.462-1.385-.505zm.924-.752c.332-.245.462-.635.462-1.14 0-.505-.173-.923-.505-1.169-.332-.245-.837-.375-1.515-.375h-1.717v3.102h1.934c.592 0 1.01-.173 1.342-.418zm2.665-9.635c.462-.592.707-1.342.707-2.309v-2.482c0-.923-.245-1.674-.707-2.265-.462-.592-1.053-.88-1.804-.88h-1.847v8.816h1.847c.707 0 1.299-.289 1.804-.88zm57.723 8.625c0-.548-.173-.967-.505-1.255-.332-.289-.88-.418-1.558-.418h-2.049v3.348h1.977c.75 0 1.299-.173 1.631-.462.332-.289.505-.707.505-1.212zm-74.543-69.814v85.898h85.898v-85.898h-85.898zm63.619 50.517h3.189l5.036 8.6h.043v-8.6h3.189v13.766h-3.189l-5.036-8.643h-.043v8.6h-3.189v-13.722zm-18.297.043h3.189v13.722h-3.189v-13.722zm-35.583 13.722v-13.722h5.036c1.602 0 2.972.548 4.069 1.602 1.097 1.053 1.631 2.395 1.631 4.026v2.482c0 1.631-.548 3.016-1.631 4.069-1.097 1.053-2.439 1.602-4.069 1.602h-5.036v-.058zm5.079 10.837c-.462.418-1.14.592-1.934.592h-2.972v-.058h-.014v-8.268h2.395c.837 0 1.515.173 2.02.548.462.375.707.923.707 1.631 0 .418-.13.75-.332 1.097-.216.332-.548.548-.923.678.505.087.967.289 1.255.678.332.375.505.837.505 1.385 0 .75-.245 1.299-.707 1.717zm7.258.577h-4.993v-8.268h4.949v.592h-4.286v3.102h3.694v.548h-3.651v3.434h4.286v.592zm.289-25.136h8.975v2.439h-5.786v2.944h4.819v2.467h-4.819v3.434h5.786v2.439h-8.975v-13.722zm5.685 24.602c-.548.375-1.212.592-2.02.592s-1.515-.216-2.136-.635c-.592-.418-.88-1.01-.88-1.804v-.043h.635c0 .635.245 1.14.707 1.429.462.289 1.053.462 1.631.462.635 0 1.14-.13 1.558-.418.418-.289.606-.635.606-1.097 0-.418-.173-.75-.505-1.053-.332-.289-.923-.548-1.717-.794-.88-.245-1.558-.548-2.02-.923-.462-.375-.678-.837-.678-1.472s.245-1.14.75-1.558c.505-.418 1.169-.635 1.977-.635.837 0 1.515.216 2.02.678.505.462.75 1.053.75 1.76v.043h-.635c0-.548-.216-1.01-.592-1.342-.375-.332-.923-.548-1.515-.548-.635 0-1.14.173-1.515.462-.375.289-.548.678-.548 1.14 0 .418.173.75.505 1.053.332.289.923.505 1.76.75.88.245 1.558.548 1.977.923.462.375.678.88.678 1.472 0 .635-.245 1.169-.794 1.558zm8.066-7.186h-2.799v7.676h-.678v-7.676h-2.9v-.592h6.378v.592zm5.786 7.186c-.548.375-1.212.592-2.02.592s-1.515-.216-2.136-.635c-.592-.418-.88-1.01-.88-1.804v-.043h.635c0 .635.245 1.14.707 1.429.462.289 1.053.462 1.631.462.635 0 1.14-.13 1.558-.418.418-.289.606-.635.606-1.097 0-.418-.173-.75-.505-1.053-.332-.289-.923-.548-1.717-.794-.88-.245-1.558-.548-2.02-.923-.462-.375-.678-.837-.678-1.472s.245-1.14.75-1.558c.505-.418 1.169-.635 1.977-.635.837 0 1.515.216 2.02.678.505.462.75 1.053.75 1.76v.043h-.635c0-.548-.216-1.01-.592-1.342-.375-.332-.923-.548-1.515-.548-.635 0-1.14.173-1.515.462-.375.289-.548.678-.548 1.14 0 .418.173.75.505 1.053.332.289.923.505 1.76.75.88.245 1.558.548 1.977.923.462.375.678.88.678 1.472 0 .635-.245 1.169-.794 1.558zm-.043-11.717c-.967.678-2.179 1.01-3.737 1.01-1.558 0-2.857-.375-3.939-1.097-1.097-.707-1.602-1.89-1.558-3.434v-.043h3.102c0 .794.216 1.385.592 1.717.375.332 1.01.505 1.804.505.678 0 1.169-.13 1.472-.375.433-.303.606-.678.606-1.097 0-.505-.173-.88-.462-1.14-.289-.26-.88-.548-1.76-.837-1.717-.548-2.972-1.14-3.781-1.76-.837-.635-1.255-1.515-1.255-2.684 0-1.14.462-2.092 1.429-2.77.967-.707 2.179-1.053 3.651-1.053 1.558 0 2.814.375 3.781 1.097.967.707 1.429 1.76 1.385 3.102v.043h-3.117c0-.635-.173-1.14-.548-1.429-.375-.289-.88-.418-1.602-.418-.592 0-1.053.13-1.385.418-.332.289-.505.635-.505 1.053 0 .418.173.707.505.967.332.245.967.548 1.934.923 1.602.462 2.814 1.053 3.607 1.717.794.678 1.212 1.602 1.212 2.77 0 1.212-.462 2.136-1.429 2.814zm7.489 4.574h-4.242v3.102h3.694v.548h-3.737v3.434h4.286v.592h-4.949v-8.268h4.949v.592zm6.378 7.648h-4.949v-8.282h.678v7.691h4.271v.592zm-3.535-12.727c-1.053-1.053-1.602-2.395-1.602-4.069v-2.857c0-1.631.505-3.016 1.558-4.069s2.352-1.602 3.983-1.602c1.76 0 3.059.375 3.983 1.169.88.794 1.342 1.847 1.299 3.189v.043h-2.972c0-.678-.173-1.169-.548-1.515-.375-.332-.88-.505-1.631-.505-.75 0-1.342.289-1.804.88-.462.592-.678 1.342-.678 2.265v2.9c0 .967.216 1.717.678 2.309.462.592 1.097.88 1.89.88.592 0 1.053-.043 1.385-.13.332-.087.592-.216.794-.375v-2.439h-2.439v-2.092h5.627l.014 5.469c-.462.592-1.14 1.097-2.02 1.472-.88.418-1.977.635-3.362.635-1.717 0-3.102-.505-4.156-1.558zm9.913 12.727h-4.949v-8.282h.678v7.676h.029v.014h4.242v.592zm6.421-7.648h-4.242v3.102h3.694v.548h-3.737v3.434h4.286v.592h-4.949v-8.268h4.949v.592zm7.316 7.59h-.678c-.13-.13-.245-.332-.289-.592-.043-.245-.087-.505-.087-.75v-.75c0-.505-.173-.923-.505-1.212-.332-.289-.794-.418-1.385-.418h-2.309v.029h.029v3.737h-.678v-8.268h2.77c.88 0 1.558.216 2.049.592.462.375.707.967.707 1.674 0 .418-.13.837-.375 1.169-.245.332-.592.592-1.053.75.505.13.88.375 1.097.678.216.332.332.75.332 1.255v.794c0 .245.043.505.087.678.043.216.173.375.289.505v.13z"/></svg>