<svg width="214" height="39" viewBox="0 0 214 39" xmlns="http://www.w3.org/2000/svg"><title>Deutsche_Leasing_logo</title><desc>Created with Sketch.</desc><path d="M213.76 4.235l-13.04-4.235c-.857 3.313-.676 6.388.764 9.798 1.426 3.197 4.108 5.679 7.621 6.966-1.248.034-2.454-.104-3.602-.393-5.56-1.387-9.752-6.241-10.382-11.712l-4.661.002c1.13 9.591 8.781 16.309 17.795 16.523l5.506-16.949"/><path d="M80 14.512l-3.002 1.534v17.194h3.002v-7.534c0-1.748 1.239-3.117 2.823-3.117 1.457 0 2.079.72 2.079 2.404v8.248h3.005v-8.94c0-2.738-1.626-4.369-4.346-4.369-1.471 0-2.7.474-3.56 1.34v-6.759zm28.944 1.535v17.193h9.484v-2.661h-6.405v-16.066l-3.079 1.535zm42.014 9.314l-.184-.057c-1.805-.566-2.603-.852-2.603-1.617 0-.579.239-1.244 2.105-1.244 1.225 0 2.362.179 3.474.55l.405.135v-2.626l-.22-.065c-1.144-.34-2.39-.505-3.806-.505-3.031 0-4.914 1.511-4.914 3.951 0 2.409 1.766 3.191 3.734 3.839l.586.19c1.504.481 2.354.794 2.354 1.659 0 .644-.277 1.38-2.45 1.38-1.701 0-2.911-.475-3.494-.703l-.336-.132-.84 2.361.255.12c.716.333 2.264.891 4.563.891 3.405 0 5.356-1.481 5.356-4.064 0-2.62-1.885-3.418-3.985-4.063zm-52.725.061h-4.89c.209-2.1 1.088-3.176 2.638-3.176 1.516 0 2.252.955 2.252 2.918v.259zm-2.204-5.54c-3.591 0-5.824 2.626-5.824 6.856 0 4.193 2.403 6.796 6.266 6.796 1.61 0 2.808-.146 3.884-.481l.28-.087-.618-2.411-.304.085c-.69.191-1.855.384-2.898.384-2.034 0-3.146-1.076-3.415-3.262h7.899l.061-1.763c0-3.945-1.895-6.116-5.332-6.116zm63.469-5.148c-1.039 0-1.882.814-1.882 1.81 0 .985.844 1.786 1.882 1.786 1.009 0 1.859-.819 1.859-1.786 0-.996-.835-1.81-1.859-1.81zm-32.026 10.688h-4.89c.207-2.1 1.089-3.176 2.636-3.176 1.515 0 2.254.955 2.254 2.918v.259zm-2.204-5.54c-3.594 0-5.825 2.626-5.825 6.856 0 4.193 2.403 6.796 6.265 6.796 1.611 0 2.809-.146 3.885-.481l.28-.087-.618-2.411-.303.085c-.69.191-1.854.384-2.897.384-2.035 0-3.148-1.076-3.415-3.262h7.899l.059-1.763c0-3.945-1.892-6.116-5.33-6.116zm46.078.049c-1.471 0-2.748.524-3.632 1.453l-.034-1.205h-2.896v13.061h3.004v-7.534c0-1.748 1.239-3.117 2.821-3.117 1.456 0 2.079.72 2.079 2.404v8.248h3.005v-8.94c0-2.738-1.624-4.369-4.346-4.369zm-112.239 5.43l-.184-.057c-1.805-.566-2.602-.852-2.602-1.617 0-.579.239-1.244 2.106-1.244 1.225 0 2.36.179 3.474.55l.403.135v-2.626l-.219-.065c-1.145-.34-2.388-.505-3.809-.505-3.027 0-4.911 1.511-4.911 3.951 0 2.409 1.766 3.191 3.734 3.839l.585.19c1.505.481 2.355.794 2.355 1.659 0 .644-.276 1.38-2.449 1.38-1.701 0-2.912-.475-3.496-.703l-.334-.132-.84 2.361.254.12c.718.333 2.263.891 4.561.891 3.405 0 5.359-1.481 5.359-4.064 0-2.62-1.886-3.418-3.986-4.063zm-53.725 5.218h-2.304v-12.396h2.304c3.134 0 4.79 2.151 4.79 6.217 0 4.043-1.656 6.179-4.79 6.179zm-.026-15.054h-5.355v17.715h5.355c5.217 0 8.089-3.14 8.089-8.84 0-5.724-2.871-8.875-8.089-8.875zm68.586 14.854c-.191.071-1.197.422-2.552.422-2.261 0-3.361-1.336-3.361-4.086 0-2.816 1.123-4.126 3.534-4.126.721 0 1.594.142 2.526.407l.391.113v-2.579l-.183-.081c-.209-.093-1.433-.47-3.179-.47-3.924 0-6.266 2.527-6.266 6.76 0 4.195 2.305 6.699 6.168 6.699 1.744 0 2.892-.325 3.698-.609l.279-.097-.748-2.468-.306.115zm112.344-3.196c0 2.185-1.04 3.594-2.649 3.594-1.787 0-2.621-1.29-2.621-4.061 0-2.56 1.099-4.15 2.869-4.15 1.166 0 1.85.473 2.401 1.006v3.611zm.113-7.004l-.034.725c-.82-.64-1.844-.973-3.144-.973-3.232 0-5.406 2.726-5.406 6.784 0 5.741 3.28 6.6 5.235 6.6 1.395 0 2.449-.409 3.26-1.255v1.046c0 1.981-1.021 2.867-3.311 2.867-1.233 0-2.214-.205-2.929-.384l-.314-.079-.494 2.432.293.068c.957.222 2.174.449 3.936.449 1.921 0 3.394-.484 4.376-1.44l.002-.004c.956-.956 1.42-2.284 1.42-4.06v-12.778h-2.891zm-29.743 2.174l.29.015c.36.019.896.087 1.334.154v10.719h3.004v-13.061h-4.627v2.174zm-17.036 7.693c-.518.482-1.43.979-2.574.979-1.495 0-1.81-.924-1.81-1.697 0-1.324.647-2.205 3.804-2.205h.58v2.924zm-2.131-10.114c-1.681 0-2.834.231-4.049.576l-.222.065v2.614l.41-.146c.931-.331 2.06-.671 3.395-.671 2.172 0 2.597.745 2.597 2.031v.365l-.949.016c-1.544.027-2.746.221-3.682.587-1.833.726-2.758 2.091-2.758 4.055 0 2.582 1.514 4.064 4.15 4.064 1.344 0 2.535-.457 3.316-.996l.034.749h2.868v-8.865c0-3.074-1.576-4.444-5.11-4.444zm-93.079-2.021v2.271h-1.944v2.486h1.944v6.834c0 2.646 1.28 3.989 3.806 3.989.954 0 1.946-.134 2.794-.381l.281-.083-.565-2.386-.318.109c-.26.086-.935.205-1.53.205-1.081 0-1.465-.451-1.465-1.723v-6.564h3.227v-2.486h-3.227l.005-3.802-3.009 1.531zm-20.932 7.512h-4.891c.207-2.1 1.087-3.176 2.637-3.176 1.515 0 2.254.955 2.254 2.918v.259zm-2.204-5.54c-3.594 0-5.825 2.626-5.825 6.856 0 4.193 2.403 6.796 6.268 6.796 1.609 0 2.806-.146 3.884-.481l.279-.087-.619-2.411-.302.085c-.69.191-1.855.384-2.898.384-2.034 0-3.145-1.076-3.416-3.262h7.901l.059-1.763c0-3.945-1.894-6.116-5.33-6.116zm15.836 7.866c0 1.711-1.276 3.102-2.844 3.102-1.461 0-2.057-.664-2.057-2.289v-8.384h-3.003v8.903c0 2.841 1.534 4.406 4.321 4.406 1.488 0 2.765-.521 3.645-1.436l.016 1.189h2.925v-13.061h-3.004v7.57z"/></svg>