<?xml version="1.0" encoding="UTF-8"?>
<svg width="152px" height="50px" viewBox="0 0 152 50" version="1.1" xmlns="http://www.w3.org/2000/svg" xmlns:xlink="http://www.w3.org/1999/xlink">
    <!-- Generator: Sketch 46.2 (44496) - http://www.bohemiancoding.com/sketch -->
    <title>Page 1</title>
    <desc>Created with Sketch.</desc>
    <defs>
        <polygon id="path-1" points="58.5695021 0.131625297 58.5695021 49.7925311 0.14153527 49.7925311 0.14153527 0.131625297 58.5695021 0.131625297"></polygon>
    </defs>
    <g id="Page-1" stroke="none" stroke-width="1" fill="none" fill-rule="evenodd">
        <g id="über-uns-copy" transform="translate(-179.000000, -4049.000000)">
            <g id="kunden" transform="translate(100.000000, 3812.000000)">
                <g id="Group-6" transform="translate(0.000000, 237.000000)">
                    <g id="Page-1" transform="translate(79.000000, 0.000000)">
                        <path d="M122.914647,22.9146888 C122.671079,22.820083 122.412365,22.77361 122.138714,22.7750622 C121.727925,22.7773444 121.353859,22.8854357 121.0161,23.0995436 C120.678548,23.313444 120.373568,23.5991286 120.101784,23.95639 C119.829793,24.3140664 119.590788,24.7190456 119.384564,25.1717427 C119.178133,25.6246473 119.006141,26.0947718 118.868382,26.5812863 C118.730622,27.0682158 118.628755,27.5478838 118.562988,28.0204979 C118.497012,28.493112 118.465062,28.9244398 118.467137,29.3146888 C118.469419,29.7186307 118.500332,30.0572199 118.559876,30.3304564 C118.619419,30.6039004 118.699502,30.8242324 118.79971,30.9914523 C118.89971,31.1588797 119.020041,31.2777593 119.160913,31.3489212 C119.301369,31.420083 119.454066,31.4553527 119.618174,31.4543154 C119.926266,31.4526556 120.2439,31.3173859 120.571079,31.0487137 C120.89805,30.7800415 121.204274,30.4277593 121.489336,29.9914523 C121.774606,29.5553527 122.030207,29.063029 122.256763,28.5140664 C122.482905,27.9653112 122.652822,27.409917 122.766307,26.8478838 L123.486846,23.3530705 C123.34888,23.1553527 123.158008,23.0095021 122.914647,22.9146888" id="Fill-1" fill="#000000"></path>
                        <g id="Group-5" transform="translate(92.531120, 0.181328)">
                            <mask id="mask-2" fill="white">
                                <use xlink:href="#path-1"></use>
                            </mask>
                            <g id="Clip-4"></g>
                            <path d="M52.4778423,25.2128631 C52.1741079,26.0221992 51.7678838,26.8475104 51.2589627,27.6887967 C50.7500415,28.5298755 50.1656017,29.3680498 49.506473,30.2033195 C48.8469295,31.0385892 48.166639,31.8414938 47.4658091,32.6116183 L44.900249,32.8512448 C44.8979668,32.4201245 44.8902905,31.9529046 44.8774274,31.4497925 C44.8645643,30.946888 44.8512863,30.4284232 44.8382158,29.8946058 C44.8251452,29.3607884 44.8120747,28.826971 44.7990041,28.2931535 C44.7857261,27.7593361 44.7709959,27.2495851 44.7548133,26.7634855 C44.7384232,26.2775934 44.7222407,25.8292531 44.706473,25.4186722 C44.6904979,25.0080913 44.6782573,24.6556017 44.670166,24.3614108 C44.1292946,25.6649378 43.5102075,27.0182573 42.8129046,28.4217842 C42.1151867,29.8255187 41.3046058,31.2209544 40.3811618,32.6085062 L37.6307469,32.8078838 L37.3682988,24.0616183 C37.3595851,23.739834 37.3170539,23.480083 37.2409129,23.2819502 C37.1643568,23.0838174 37.0626971,22.9286307 36.9355187,22.81639 C36.8081328,22.7041494 36.6573029,22.629668 36.4826141,22.5929461 C36.3079253,22.5562241 36.1178838,22.5383817 35.9124896,22.5394191 L35.7892531,22.540249 L36.1220332,21.4192946 L40.1774274,21.3975104 C40.2224481,22.0956432 40.263527,22.7919087 40.3017012,23.4863071 C40.3394606,24.1809129 40.3703734,24.8311203 40.3942324,25.436722 C40.4180913,26.0423237 40.4380083,26.5863071 40.4543983,27.0688797 C40.4705809,27.5512448 40.4792946,27.9329876 40.4809544,28.2134855 C40.4836515,28.7475104 40.4826141,29.1771784 40.4776349,29.5020747 C40.4724481,29.8273859 40.470166,30.0070539 40.4703734,30.0410788 L40.6243154,30.0404564 C40.9703734,29.4840249 41.3162241,28.876556 41.6618672,28.2174274 C42.0073029,27.5585062 42.3492116,26.8653527 42.6875934,26.1379668 C43.0259751,25.4105809 43.3575104,24.6609959 43.6819917,23.8892116 C44.0062656,23.1174274 44.3168465,22.3439834 44.6139419,21.5688797 L47.1805394,21.473029 C47.223278,21.8219917 47.2649793,22.2495851 47.3052282,22.7558091 C47.3454772,23.2622407 47.3842739,23.8026971 47.4218257,24.3773859 C47.4589627,24.9522822 47.4946473,25.5408714 47.5288797,26.1429461 C47.5629046,26.7450207 47.5929876,27.3147303 47.620166,27.8520747 C47.6469295,28.3892116 47.6680913,28.8751037 47.6844813,29.309751 C47.700249,29.7441909 47.7089627,30.0811203 47.7104149,30.3207469 L47.8539834,30.319917 C48.4660166,29.5568465 48.9722407,28.8680498 49.3726556,28.2533195 C49.773278,27.6385892 50.0902905,27.0773859 50.3239004,26.5695021 C50.5573029,26.0616183 50.7205809,25.6020747 50.8143568,25.1910788 C50.9079253,24.7798755 50.9537759,24.3995851 50.9521162,24.0504149 C50.9510788,23.8452282 50.9191286,23.6605809 50.8566805,23.4966805 C50.7942324,23.3325726 50.7145643,23.1910788 50.6182988,23.0717842 C50.5216183,22.9524896 50.41,22.8572614 50.283029,22.7860996 C50.1560581,22.7147303 50.0272199,22.6626556 49.8971369,22.6290456 C49.9162241,22.3620332 49.9714108,22.1342324 50.0626971,21.9454357 C50.1543983,21.756639 50.269751,21.6020747 50.4093776,21.4813278 C50.5490041,21.3609959 50.7077178,21.2728216 50.8855187,21.2170124 C51.063112,21.1614108 51.2512863,21.1329876 51.449834,21.1319502 C51.9151867,21.1294606 52.2770124,21.2815353 52.5353112,21.5881743 C52.79361,21.8948133 52.9243154,22.3354772 52.9274274,22.9105809 C52.9313693,23.6360996 52.7815768,24.4037344 52.4778423,25.2128631 M34.5765975,32.080083 C34.3512863,32.2284232 34.1006639,32.3649378 33.8239004,32.4896266 C33.5475519,32.6143154 33.246722,32.716805 32.9220332,32.7973029 C32.5973444,32.8775934 32.246722,32.9190871 31.8703734,32.9209544 C31.2473444,32.9242739 30.7469295,32.7848548 30.3691286,32.5029046 C29.9911203,32.2209544 29.8006639,31.8062241 29.7977593,31.2585062 C29.7965145,31.0394191 29.8056432,30.8255187 29.8249378,30.6165975 C29.8444398,30.4078838 29.8807469,30.1661826 29.9340664,29.8923237 L29.7902905,29.8931535 C29.5328216,30.3802905 29.276805,30.8145228 29.0220332,31.1958506 C28.7674689,31.5771784 28.4832365,31.896888 28.1699585,32.1553942 C27.856473,32.4136929 27.5066805,32.6105809 27.1207884,32.7462656 C26.7346888,32.8817427 26.2851037,32.9508299 25.7716183,32.9537344 C25.2720332,32.9562241 24.8332365,32.8609959 24.4560581,32.6680498 C24.0784647,32.4748963 23.7637344,32.2080913 23.5120747,31.8670124 C23.2604149,31.5263485 23.0699585,31.1215768 22.9409129,30.653527 C22.8116598,30.1852697 22.7456846,29.6775934 22.7427801,29.1298755 C22.740083,28.5823651 22.8000415,28.0087137 22.9236929,27.4091286 C23.0469295,26.8095436 23.2336515,26.2182573 23.4840664,25.6350622 C23.7340664,25.0518672 24.0442324,24.4958506 24.4145643,23.9665975 C24.7846888,23.4375519 25.2133195,22.9732365 25.7008714,22.5736515 C26.1880083,22.1740664 26.7321992,21.8545643 27.3332365,21.6151452 C27.9340664,21.3757261 28.5907054,21.2541494 29.3025311,21.2504149 C29.57639,21.2489627 29.8554357,21.2697095 30.1398755,21.3126556 C30.4239004,21.3558091 30.6963071,21.4105809 30.9570954,21.4778008 C31.2172614,21.5448133 31.4624896,21.6205394 31.6921577,21.7047718 C31.9218257,21.7892116 32.1158091,21.8755187 32.2739004,21.9634855 L33.379917,21.4543568 L34.4990041,21.4483402 L33.1481743,28.0165975 C33.1214108,28.133195 33.0880083,28.2873444 33.0479668,28.4792531 C33.0079253,28.6709544 32.9695436,28.8748963 32.933029,29.0906639 C32.8965145,29.3064315 32.8651867,29.5155602 32.8388382,29.7176349 C32.8124896,29.9197095 32.799834,30.0890041 32.8004564,30.2259336 C32.8025311,30.5751037 32.8720332,30.8348548 33.01,31.0051867 C33.1477593,31.1755187 33.3261826,31.2599585 33.5454772,31.2589212 C33.7438174,31.2578838 33.9336515,31.2141079 34.1145643,31.1275934 C34.2952697,31.0410788 34.4948548,30.9354772 34.713527,30.8112033 L35.1801245,31.6506224 C35.0027386,31.7885892 34.8017012,31.9317427 34.5765975,32.080083 M19.7902905,31.0655602 C19.9178838,31.2292531 20.0977593,31.3103734 20.3305394,31.3091286 C20.5496266,31.3078838 20.7512863,31.2657676 20.9357261,31.1825726 C21.1199585,31.0995851 21.3315768,30.9788382 21.5703734,30.819917 L22.0772199,31.5255187 C21.9139419,31.7045643 21.7265975,31.8817427 21.5153942,32.0574689 C21.3039834,32.233195 21.0670539,32.390249 20.8041909,32.5284232 C20.5415353,32.666805 20.2494191,32.7778008 19.9282573,32.8616183 C19.606888,32.9454357 19.2546058,32.9885892 18.8714108,32.9904564 C18.063527,32.9948133 17.443195,32.8082988 17.0097925,32.4307054 C16.576805,32.053112 16.3583402,31.5255187 16.3546058,30.8479253 C16.3514938,30.2456432 16.46,29.4099585 16.6801245,28.3408714 L18.4614523,19.706639 C18.4815768,19.6176349 18.5014938,19.5251037 18.5216183,19.4292531 C18.5415353,19.3334025 18.5581328,19.2425311 18.5714108,19.1568465 C18.5846888,19.0711618 18.5944398,18.9975104 18.6010788,18.9358921 C18.6075104,18.8742739 18.6106224,18.8298755 18.6106224,18.8024896 C18.6095851,18.6107884 18.5882158,18.4570539 18.5465145,18.3406639 C18.5048133,18.2244813 18.4392531,18.1358921 18.3500415,18.0748963 C18.2606224,18.0136929 18.1442324,17.9732365 18.000249,17.953527 C17.856473,17.9338174 17.6851037,17.9244813 17.4867635,17.9255187 L17.0452697,17.9278008 L17.2344813,16.8178423 L22.3168465,16.7906639 L19.873278,28.3443983 C19.7929876,28.7282158 19.7265975,29.0860996 19.6736929,29.4184647 C19.6203734,29.7508299 19.5948548,30.0641079 19.5965145,30.3580913 C19.5981743,30.6661826 19.6626971,30.9020747 19.7902905,31.0655602 M57.2224481,16.9151452 C52.7782573,3.94564315 38.6616598,-2.9653527 25.6921577,1.47883817 C14.6535685,5.26120332 8.00564315,16.0504149 9.01020747,27.1757261 L0.14153527,36.7784232 L12.6359336,38.0427386 C18.5956846,47.6771784 30.6158091,52.273029 41.7859336,48.4454357 C54.7554357,44.0012448 61.6664315,29.8846473 57.2224481,16.9151452" id="Fill-3" fill="#000000" mask="url(#mask-2)"></path>
                        </g>
                        <g id="Group-8" transform="translate(4.979253, 0.181328)" fill="#000000">
                            <path d="M15.9754772,38.1862448 C11.2373029,38.1862448 10.0526556,34.7453734 11.7449793,29.838112 C13.60639,24.3665353 18.5136515,18.5001452 17.6113693,17.9926763 C16.8215353,17.5414315 10.673195,21.3769087 7.40161826,26.7356224 C5.37112033,30.0636307 3.2839834,34.0121784 1.93024896,37.4528423 C1.70452282,37.9607261 1.30970954,38.0733817 0.971327801,37.6785685 C0.0686307054,36.6632158 -0.438838174,35.0837552 0.74560166,31.6995228 C2.71966805,26.0586515 14.4524481,6.20346473 19.0215353,0.506369295 C19.5292116,-0.170394191 20.0933195,-0.113962656 20.3752697,0.56280083 C21.1084647,2.19869295 20.9393776,5.0190249 18.7958091,8.57255187 C17.4420747,10.8289834 14.4524481,15.3978631 12.0271369,19.1771162 C14.3395851,16.9208921 17.2727801,15.0594813 18.7958091,15.2285685 C20.7136515,15.4542946 22.4624066,18.2746266 20.9956017,21.15139 C19.7547303,23.6331328 17.0472614,27.7509751 15.749751,30.6841701 C14.3395851,33.9557469 14.6217427,36.6067842 16.7086722,36.4941286 C19.0215353,36.3812656 22.1238174,32.3200622 23.8723651,28.7098963 C24.0978838,28.2022199 24.6621992,28.2022199 24.8877178,28.6534647 C25.169668,29.2740041 25.169668,30.458444 24.32361,32.1507676 C22.7443568,35.3659129 19.3034855,38.1862448 15.9754772,38.1862448" id="Fill-6"></path>
                        </g>
                        <path d="M40.4707884,23.7582365 C42.2757676,21.3891494 43.5168465,18.4559544 42.7272199,17.8354149 C41.5425726,16.8764938 36.8608299,20.2609336 34.2095851,25.6196473 C34.0404979,25.958029 33.8712033,26.2964108 33.7583402,26.5785685 C36.5224481,28.3271162 38.8351037,25.9015975 40.4707884,23.7582365 M35.7892531,36.7316805 C40.4707884,36.9574066 44.5886307,32.4449585 47.0139419,28.7219295 C47.2960996,28.2706846 47.7473444,28.2706846 47.9728631,28.778361 C48.1985892,29.2296058 48.0295021,30.8090664 47.0139419,32.2756639 C44.6448548,35.7165353 40.3017012,38.3111411 35.9583402,38.3675726 C28.7946473,38.4804357 26.3126971,31.4296058 29.9792946,24.1530498 C33.6456846,16.8764938 39.3992116,13.9432988 42.2195436,15.5791909 C43.6297095,16.425249 44.6448548,17.2713071 45.5475519,18.5123859 C46.5626971,19.8661203 46.1114523,23.3069917 43.7425726,26.1835477 C40.9784647,29.5679876 37.1992116,31.0345851 33.2506639,27.8194398 C31.4456846,33.0088589 32.7994191,36.5625934 35.7892531,36.7316805" id="Fill-9" fill="#000000"></path>
                        <path d="M62.8071162,8.02070539 C62.0739212,7.56946058 57.8998548,13.8306639 54.0077386,21.0507884 C53.5000622,21.953278 53.0488174,22.8557676 52.6540041,23.7582573 C60.381805,17.4970539 63.5405187,8.47195021 62.8071162,8.02070539 M51.3000622,36.6190456 C54.0077386,36.8445643 57.9560788,32.783361 60.1560788,28.44 C60.5508921,27.7065975 61.1712241,27.6503734 61.3969502,28.44 C61.6791079,29.3424896 61.4533817,30.583361 60.8328423,31.9370954 C60.0432158,33.6294191 55.9255809,38.3111618 51.4129253,38.1985062 C47.5208091,38.0856432 45.4338797,35.3779668 46.7311826,29.2860581 C48.8183195,19.4713278 55.24861,9.26157676 61.0021369,3.28253112 C61.848195,2.38004149 62.638029,2.26717842 63.4276556,3.00058091 C65.0633402,4.46717842 65.4019295,6.55410788 64.7249585,9.20514523 C62.9762033,16.1433195 56.6587759,22.9119917 51.6386515,26.1835685 C49.3824274,31.7115768 48.761888,36.3933195 51.3000622,36.6190456" id="Fill-11" fill="#000000"></path>
                        <path d="M75.7802075,8.02070539 C75.0470124,7.56946058 70.8729461,13.8306639 66.9808299,21.0507884 C66.4731535,21.953278 66.0219087,22.8557676 65.6270954,23.7582573 C73.3548963,17.4970539 76.51361,8.47195021 75.7802075,8.02070539 M64.2731535,36.6190456 C66.9808299,36.8445643 70.9291701,32.783361 73.1291701,28.44 C73.5239834,27.7065975 74.1443154,27.6503734 74.3700415,28.44 C74.6521992,29.3424896 74.4266805,30.583361 73.8059336,31.9370954 C73.0163071,33.6294191 68.8986722,38.3111618 64.3860166,38.1985062 C60.4939004,38.0856432 58.406971,35.3779668 59.7042739,29.2860581 C61.7912033,19.4713278 68.2217012,9.26157676 73.9752282,3.28253112 C74.8212863,2.38004149 75.6111203,2.26717842 76.4007469,3.00058091 C78.036639,4.46717842 78.3750207,6.55410788 77.6980498,9.20514523 C75.9492946,16.1433195 69.6318672,22.9119917 64.6117427,26.1835685 C62.3555187,31.7115768 61.7349793,36.3933195 64.2731535,36.6190456" id="Fill-13" fill="#000000"></path>
                        <path d="M86.948278,19.6404772 C86.6663278,17.8354979 85.538112,18.1738797 85.2561618,19.8097718 C84.9740041,21.3328008 85.594751,22.9684855 86.4970332,23.8145436 C86.948278,22.0659959 87.1173651,20.6558299 86.948278,19.6404772 M85.0304357,24.6608091 C83.8459959,23.7583195 82.4920539,21.7840456 82.4358299,19.6969087 C80.9128008,20.9942116 79.2769087,22.8558299 78.0922614,24.9991909 C75.7233817,29.2861203 74.8771162,34.4755394 76.3439212,35.7164108 C77.9231743,37.0137137 81.3640456,35.0396473 84.1279461,29.8500207 C84.9740041,28.2707676 85.6509751,26.6913071 86.1022199,25.3375726 C85.7074066,25.1684855 85.3690249,24.9427593 85.0304357,24.6608091 M89.8250415,26.0709751 C88.6403942,30.8653734 85.0868672,36.5624689 80.9128008,37.9726349 C78.8820954,38.6496058 76.0617635,38.4240871 73.8055394,35.4908921 C71.3235892,32.2191079 72.1698548,27.3118465 74.708029,22.7993983 C76.8515975,18.9635062 80.2922614,15.6919295 83.6767012,15.4664108 C85.425249,15.3535477 86.3841701,15.8612241 87.5123859,17.3842531 C88.8098963,19.1328008 90.5020124,19.5278216 90.1634232,23.5890249 C90.1071992,24.0402697 90.1071992,24.435083 90.0507676,24.8863278 C90.3891494,24.8863278 90.7275311,24.7734647 91.1789834,24.7734647 C91.5737967,24.7734647 91.5737967,25.0556224 91.3480705,25.3375726 C90.9532573,25.7888174 90.3891494,26.0145436 89.8250415,26.0709751" id="Fill-15" fill="#000000"></path>
                        <path d="M1.19514523,49.031971 C25.323361,47.1473237 49.5243983,46.2226349 73.7262656,46.2759544 C80.6013693,46.2910996 87.4760581,46.3865353 94.3488797,46.5572822 C95.9517842,46.5971162 95.9509544,44.1074896 94.3488797,44.0676556 C70.1555187,43.4664108 45.939751,43.828444 21.7756432,45.1664108 C14.9104979,45.5464938 8.04991701,46.0068672 1.19514523,46.5423444 C-0.391576763,46.6664108 -0.405062241,49.1570747 1.19514523,49.031971" id="Fill-17" fill="#000000"></path>
                    </g>
                </g>
            </g>
        </g>
    </g>
</svg>