<svg width="177" height="47" viewBox="0 0 177 47" xmlns="http://www.w3.org/2000/svg"><title>hometogo</title><desc>Created with Sketch.</desc><path d="M165.614 16.934c-3.455 0-5.283 2.506-5.283 7.519 0 4.945 1.829 7.451 5.283 7.451 3.455 0 5.283-2.506 5.283-7.451 0-5.012-1.829-7.519-5.283-7.519zm0 19.643c-6.503 0-10.499-3.861-10.499-12.125s4.064-12.125 10.499-12.125c6.503 0 10.499 3.861 10.499 12.125 0 8.196-3.996 12.125-10.499 12.125zm-21.743-19.711c-2.709 0-4.2 1.761-4.2 4.064s1.558 4.064 4.2 4.064c2.709 0 4.2-1.761 4.2-4.064.068-2.303-1.49-4.064-4.2-4.064zm.61 24.52c2.913 0 5.487-.881 5.487-2.98 0-1.626-1.558-2.438-3.725-2.438h-4.538c-1.829.406-2.777 1.49-2.777 2.642 0 1.897 1.964 2.777 5.554 2.777zm8.806-26.011c-.61 0-1.084.135-1.422.474.948 1.355 1.422 3.048 1.422 5.08 0 5.351-3.522 8.602-9.415 8.602-1.693 0-3.251-.271-4.538-.813-.271.271-.406.677-.406 1.084 0 .881.61 1.693 2.845 1.693h4.471c4.945 0 8.941 1.829 8.941 6.909 0 5.148-4.606 7.586-10.702 7.586-5.216 0-10.702-1.558-10.702-7.451 0-1.829.813-3.59 2.913-4.945-1.219-.813-2.235-2.1-2.235-4.064 0-1.287.542-2.438 1.626-3.455-1.084-1.49-1.558-3.251-1.558-5.216 0-5.351 3.522-8.602 9.415-8.602 1.761 0 3.319.271 4.606.881.881-1.219 2.506-2.303 4.809-2.303 1.219 0 2.168 1.016 2.168 2.235-.068 1.287-1.016 2.303-2.235 2.303zm-63.468 1.558c-2.777 0-4.809 1.693-5.012 4.877h9.483c0-2.438-1.287-4.877-4.471-4.877zm6.706 9.415h-11.854c0 3.658 2.438 5.283 5.622 5.283 2.1 0 3.59-.745 4.741-1.558.542-.339.881-.542 1.558-.542 1.219 0 2.235 1.084 2.235 2.371 0 .813-.406 1.49-.813 1.897-.813.813-3.387 2.777-7.722 2.777-6.706 0-10.838-3.793-10.838-12.192 0-7.722 3.861-12.057 10.364-12.057 8.128 0 9.618 6.57 9.618 10.025 0 1.829 0 3.996-2.913 3.996zm-21.404 9.957c-1.558 0-2.574-1.084-2.574-2.642v-11.583c0-2.845-1.084-4.809-4.2-4.809-3.455 0-4.809 1.964-4.809 4.809v11.651c0 1.49-1.152 2.642-2.574 2.642-1.558 0-2.574-1.084-2.574-2.642v-11.651c0-2.845-1.084-4.809-4.2-4.809-3.59 0-4.809 2.235-4.809 5.216v11.244c0 1.49-1.084 2.642-2.574 2.642-1.49 0-2.574-1.084-2.574-2.642v-18.424c0-1.49 1.152-2.709 2.574-2.709s2.574 1.219 2.574 2.709c.881-1.49 2.913-3.048 6.164-3.048 3.929 0 5.893 1.287 7.112 3.251 1.558-2.168 3.59-3.251 6.841-3.251 6.503 0 8.331 4.403 8.331 8.806v12.599c-.135 1.558-1.287 2.642-2.709 2.642zm-43.486-19.372c-3.455 0-5.283 2.506-5.283 7.519 0 4.945 1.829 7.451 5.283 7.451 3.455 0 5.283-2.506 5.283-7.451 0-5.012-1.829-7.519-5.283-7.519zm0 19.643c-6.503 0-10.499-3.861-10.499-12.125s4.064-12.125 10.499-12.125c6.503 0 10.499 3.861 10.499 12.125 0 8.196-3.996 12.125-10.499 12.125zm-14.834-.271c-1.558 0-2.574-1.084-2.574-2.642v-11.583c0-2.845-1.084-4.809-4.2-4.809-3.59 0-4.809 2.235-4.809 5.216v11.244c0 1.49-1.084 2.642-2.574 2.642-1.558-.068-2.642-1.152-2.642-2.709v-30.955c0-1.49 1.152-2.709 2.574-2.709 1.49 0 2.642 1.219 2.642 2.709v12.599c.881-1.49 2.913-3.048 6.164-3.048 6.503 0 8.061 4.403 8.061 8.806v12.599c0 1.558-1.152 2.642-2.642 2.642zm92.698-17.925h-2.168v12.192c0 1.152.948 1.829 1.829 1.829 1.219 0 2.235 1.084 2.235 2.371s-1.016 2.371-2.235 2.371c-4.267 0-6.909-2.845-6.909-6.841v-11.921h-1.084c-1.219 0-2.168-1.016-2.168-2.303s.948-2.235 2.168-2.235h1.084v-4.2c0-1.49 1.152-2.642 2.574-2.642s2.574 1.219 2.574 2.642v4.267h2.168c1.219 0 2.168 1.016 2.168 2.235-.068 1.219-1.016 2.235-2.235 2.235zm12.599-.61c-3.455 0-5.283 2.168-5.283 6.435 0 .542.135 1.016.339 1.422.542 2.574 2.574 4.945 5.012 4.945 2.574 0 4.741-2.777 5.08-5.487.068-.271.135-.61.135-.881 0-4.267-1.829-6.435-5.283-6.435zm6.909 17.476l-4.538 10.093c-.406.948-1.355 1.49-2.303 1.49s-1.897-.542-2.303-1.49l-4.538-10.093c-1.558-2.98-3.658-5.216-3.658-9.889 0-8.264 4.064-12.125 10.499-12.125 6.503 0 10.499 3.861 10.499 12.125.068 4.674-2.1 6.435-3.658 9.889z"/></svg>