<svg width="87" height="76" viewBox="0 0 87 76" xmlns="http://www.w3.org/2000/svg"><title>koelner-haie</title><desc>Created with Sketch.</desc><path d="M6.302 5h-4.302v2.632h.822v7.632h-.822v2.737h4.254v-4.947h1.789v4.947h2.9c0-.895 0-1.316 7.057-2.737h-6.429v-4.684h-2.224l1.498-2.842h1.208v-2.737h-3.287l-2.465 5.526v-5.526zm7.698-3v2h2v-2h-2zm3 0v2h2v-2h-2zM15.39 6.903v5.246h1.317v-5.246h-1.317zm-1.024-1.903h3.268c.732 0 1.366.669 1.366 1.44v6.12c0 .771-.634 1.44-1.366 1.44h-3.268c-.732 0-1.366-.669-1.366-1.44v-6.12c0-.771.634-1.44 1.366-1.44zM22.842 6.841h.586v-1.841h-3.429v1.841h.541v5.267h-.541v1.892h6v-3.426h-2.12v1.534h-1.038v-5.267zm7.036-1.841h-2.878v1.841h.634v5.267h-.634v1.892h2.927v-4.551l2.244 4.551h2.341v-7.159h.488v-1.841h-2.829v4.5l-2.293-4.5zm11.987 2.813v-2.813h-5.865v1.841h.541v5.267h-.541v1.892h6v-3.068h-1.985v1.176h-1.263v-1.892h1.714v-1.688h-1.714v-1.688h1.263v.972h1.85zm15.982.715v-3.528h-2.847v1.841h.56v5.267h-.56v1.841s1.4-.563 2.847-.563v-2.966h1.26v3.119s.187.051.327.46h2.567v-1.892h-.607v-5.267h.607v-1.841h-2.893v3.528h-1.26zM67.051 6.543h-.101l-.506 3.703h1.215l-.608-3.703zm-3.342 5.554h-.709v1.903h2.987l.304-2.211h1.519l.304 2.211h2.886v-1.903h-.608l-1.367-7.097h-4.051l-1.266 7.097zM74.351 6.841h.649v-1.841h-4v1.841h.703v5.267h-.703v1.892h4v-1.892h-.649v-5.267zm1.363-1.841v2.726h.844v7.496h-16.784s-2.533 1.206-3.774 2.778h29v-4.403h-3.029v1.625h-1.937v-2.621h2.632v-2.411h-2.632v-2.464h1.937v1.415h2.88v-4.141h-9.137zm-25.714 9h-16s6.267.784 10.825 2c0 0 .712-.353 2.326-1.02 1.234-.471 2.849-.98 2.849-.98zM45.847 6.943v1.687h1.307v-1.687h-1.307zm-2.847-1.943v1.841h.56v5.267h-.56v1.892h2.847v-3.631h1.307v2.864c0 .358.233.767.513.767h2.333v-1.892h-.56c0-2.25-.28-2.301-1.12-2.557 0 0 1.12-.409 1.12-1.687v-1.278c0-.614-.653-1.534-1.4-1.534h-5.04v-.051z"/><path d="M68.594 17.324c-3.149-.196-7.774.392-9.693.687-1.919.294-5.56 1.128-5.806 1.177-.246.049-.541.098-.443-.147.049-.245.098-.588 1.574-2.452 1.476-1.864 4.034-2.991 4.33-3.09.197-.098.197-.49-.049-.49-1.181-.049-1.82.098-5.166.883l-7.528 3.335c-2.854-1.079-5.412-1.52-8.069-2.011-2.608-.539-5.56-.932-8.118-1.128-2.558-.343-5.363-.049-7.97.147-2.608.196-6.396 1.03-8.266 1.52-1.82.49-1.574 1.373-.836 3.384.738 1.962 1.919 3.433 3.05 4.659 1.132 1.226 2.608 2.305 4.231 3.531 1.624 1.177 4.379 2.599 6.298 3.531 1.919.932 3.838 1.765 4.625 2.158.787.392.787.343.738.687-.049.392-.098.49-.394 1.52-.295 1.079-.836 2.599-1.427 4.757-.59 2.158-.59 2.991-.738 5.836-.148 2.844.59 2.991 1.328 3.139.738.196 2.657-.834 4.084-1.618 1.378-.785 3.05-1.52 4.034-1.913 1.23-.49 1.328-.196.787.49-.64.785-3.149 2.599-5.51 3.972-2.411 1.422-3.887.785-4.231.588-2.066-1.079-4.871-3.727-5.461-4.316-2.312-2.207-3.985-4.365-4.084-4.512-1.279-1.128-1.771-.098-.738 2.011.787 1.569 1.328 2.501 2.116 3.825.787 1.324 1.525 2.256 2.411 3.531.886 1.226 1.378 2.011 1.87 3.04.443.883.738 2.599.935 3.874.197 1.275.148 3.531.148 4.904 0 1.373.049 2.795.394 5.1.295 2.256.59 3.433.935 4.168.787 1.618 1.082.736 1.181-.196l.098-5.296c.049-.588.295-2.305.492-3.482s.836-4.561 1.082-5.934c.295-1.373.886-1.471 2.312-2.06 1.427-.588 1.624-.49 2.066.098.886 1.079.984 2.403.984 2.893 0 .294.049 1.03.394 1.079.541.098.935.049 1.968-1.52.689-1.079 1.082-3.58 1.279-4.316.148-.49.443-1.128 1.87-1.765 1.427-.588 8.266-3.433 8.266-3.433s6.79 3.04 8.02 3.678c1.574.785 1.968-.049 1.476-1.373-.295-.736-.394-1.079-.836-2.109-.492-1.079-3.05-6.866-3.05-6.866 3.001-5.051 2.854-8.092 2.854-8.092 1.378-.098 2.903-2.256 3.985-3.776 1.082-1.471 2.706-3.531 3.838-4.757 1.132-1.226 3.444-3.629 5.117-5.002 1.476-1.373.394-2.354-2.755-2.55zm-43.297-2.207c.689 0 1.181.539 1.181 1.128 0 .638-.541 1.128-1.181 1.128-.689 0-1.181-.49-1.181-1.128 0-.588.541-1.128 1.181-1.128zm44.428 5.247c-1.279 1.128-3.247 2.697-5.117 4.365-1.87 1.667-4.231 3.776-4.822 4.463-.59.638-2.116 2.011-3.395 2.011s-2.116-.245-2.804-.196c-.689 0-1.082.736-.836 1.324.197.588 1.033 2.795.984 4.953 0 1.177.049 1.716-.738 3.776 0 0 1.279 1.079 2.854 3.629.443.736 2.116 3.335 3.1 6.13.197.539 0 .638-.344.539-.344-.098-8.512-3.923-8.512-3.923s-6.544 2.795-8.807 3.776c-2.066.834-1.968 2.207-2.411 3.776-.246.981-.59 2.648-1.673 3.384-.295.196-.295.147-.295-.441 0-1.765-1.279-3.335-1.525-3.482-.886-.539-1.771-.245-3.1.392-1.082.539-1.673.883-1.87 1.618-.197.736-.984 4.855-1.328 7.062-.344 2.256-.492 3.335-.492 5.64v2.942s-.344-.392-.738-3.237c-.394-2.844-.492-4.119-.492-6.473 0-2.305.049-4.708-.689-7.209-.64-2.158-2.657-4.561-4.231-7.062-1.574-2.501-2.312-3.482-3.198-5.983 0 0 3.493 4.07 7.528 7.454.295.245 2.214 2.109 4.231 2.109 1.378 0 3.592-1.226 4.625-1.765 1.033-.588 3.887-2.55 4.576-3.09.64-.49.836-.588.492-.883-.246-.245-.64-.539-.64-.539s2.903-1.864 4.133-2.893c.344-.245 2.46-2.256.59-3.923-.197-.196-.394-.098-.394.49 0 .098 0 .932-1.378 2.06-1.378 1.079-2.952 2.354-4.576 3.188-1.624.834-3.149 1.667-4.723 2.501-1.574.834-2.657 1.569-3.296 1.226-.541-.294-.59-2.207-.098-3.335.541-1.226 1.181-2.501 1.771-3.825.541-1.226 1.525-3.237 2.066-4.512.492-1.226 1.082-2.599.836-2.991-.246-.392-.886-.736-2.165-1.177-1.328-.441-2.804-.834-3.985-1.226-1.181-.441-2.657-.932-3.149-1.569-.246-.294-.344-.588-.148-.736l-1.673-1.569 1.82.687.148-.245-1.476-1.814 1.968.834.197-.294-1.476-1.716 1.919.981.246-.196-1.082-1.569 1.574 1.226.344-.196-.935-1.765 1.919 1.275.295-.098-.886-1.52 1.771 1.373.197-.049-.59-1.324 1.574 1.226-.443-1.079 1.279 1.079h.295s-.148-.539-.295-.736c0 0 .935.588 1.033.687.049.098.049-.147.049-.245s-.098-.392.049-.343c.148.049.492.392.64.539.098.098.344.049.344-.098 0-.147-.098-.588.098-.539.197.049.295 0 .59.588.049.049.689.098.886.049l-1.082-1.128s-.689-.392-.836-.392l-.295.441c-.098 0-.738-.834-1.033-.932-.098-.049-.148.687-.148.687s-.689-1.324-1.427-1.422c-.098 0 .197.638.098.932 0 0-.836-1.275-1.722-1.471l.197 1.079-1.23-1.226-.541-.098.394 1.177-1.378-1.128-.492.049.541 1.324-1.427-1.079-.492.147.689 1.569-1.574-1.177-.59.343 1.082 1.667-1.82-1.128-.492.392 1.624 2.06-2.362-1.128-.492.785 2.066 1.913-2.362-.736s-.049.49-.049.883c0 .392-.098.392-.295.294-.197-.098-2.558-1.422-3.985-3.04s-2.312-2.599-3.001-4.757c-.443-1.324-.049-1.471.836-1.618.886-.147 3.395-.343 5.756-.196 2.411.147 4.822.441 6.79.785 1.919.343 3.788.638 5.953 1.177 2.165.539 6.593 1.618 6.593 1.618l.394-1.373.738 1.569.541-1.373.787 1.569.64-1.422.738 1.716.787-1.324.787 1.864.689-1.324.836 1.962.443-1.618s1.525 1.667 1.919 2.844c0 0 .935-.343 1.919-.981 1.968-1.324 2.263-1.373 3.69-1.962 1.427-.588 2.755-1.177 5.658-1.814 2.952-.638 4.92-.736 7.528-.736 2.46 0 3.444.343 3.444.687.098.294.049.441-1.23 1.569zm-44.725-3.364c0-.583.227-1 .5-1s.5.5.5 1c0 .583-.227 1-.5 1s-.5-.417-.5-1zm27 33.881l-2.134-.881s-6.8 2.742-7.792 3.183c-1.042.392-1.588.832-1.836 1.91-.248 1.077-.546 4.162-2.233 5.435 0 0-.149 1.567 1.39 1.469 1.539-.098 2.73-1.763 3.127-3.819.397-2.105.496-3.476 2.333-4.211 1.836-.881 7.147-3.085 7.147-3.085zm-17.194 7.758c.277-1.126.37-2.048-.508-2.611-.323-.205-2.126.768-2.311 1.28-.231.717-.323 1.536-.739 3.942s-.739 3.789-.832 4.966c-.092 1.178-.231 2.816-.231 3.994 0 1.126.092 3.226-.185 3.891 0 0 .416 1.997 1.571 1.894.555-.051 1.109-.205 1.155-1.997.092-1.792.139-3.635.37-6.042.231-2.406.462-3.379.878-5.581.508-2.253.555-2.56.832-3.738zm-22.873-58.639v2.633h-11.933v6.954h.842v2.782h-.842v7.103h13.072s-.297-.695-.297-1.49h-11.339v-4.173h.842v-5.613h-.842v-4.123h5.942v2.533l1.238-2.533h4.754v-2.633h6.685v2.633h4.704v3.378h-.644v1.987h3.02v-1.987h-.594v-3.378h4.159l1.089 2.037v-2.037h16.439c1.337 0 2.377 1.192 2.377 2.285v1.391c0 .596-.149 1.043-.545 1.49 0 0 .545.497.545 1.788h.644v2.782h2.822l.248-.099v-2.732h.594v-3.527h-.594v-3.378h9.012v3.378h-.644v3.577h.396l1.238-6.954h5.298l1.337 6.954h.248v-3.577h-.644v-3.378h14.904v5.514h-2.129v2.633h2.327v5.812h-18.123l4.605 1.49h1.188c-.198 1.093-.891 1.49-1.684 2.235-1.832 1.59-4.456 4.272-6.289 6.557-1.832 2.285-4.456 6.358-5.892 6.656 0 0 .05 2.633-2.723 7.501 0 0 1.139 2.831 2.179 5.116 1.04 2.285 2.129 4.818 1.832 5.663-.248.695-.941.695-1.139.745 0 0 1.535.894 2.426.993.941.099 1.634-.497 1.485-1.292-.446-2.931-2.921-6.954-4.06-10.233 0 0 2.723-4.669 2.723-7.6 0 0 .743-.149 2.129-1.888.594-.745 2.327-3.03 3.12-4.024.792-.993 4.853-5.514 6.437-7.004 1.585-1.49 2.674-1.937 1.733-3.477h11.389v-16.889h-34.216v6.06h-.891s.198-.199.198-2.335c0-2.533-2.377-3.726-3.615-3.726h-26.887v-2.583h-9.656z"/></svg>