<svg width="138" height="53" viewBox="0 0 138 53" xmlns="http://www.w3.org/2000/svg"><title>koeln-marathon</title><desc>Created with Sketch.</desc><path d="M109.855 44.089c.516-.206 1.702-.722 2.682-1.238 2.012-1.393 4.204-1.65 5.39-1.65 0-.103 0-.155.052-.258 0-.877.155-1.805.309-2.527-2.012-.671-3.585-1.341-3.585-1.341-18.8-8.02-28.703 9.8-28.703 9.8 9.49-9.645 22.127-3.636 22.127-3.636.619.232 1.212.542 1.728.851m23.866 4.522c-.98-.413-1.083-1.186-1.083-1.186s-.567-1.341-.516-3.043c0 0 .155-1.754-.413-2.734 0 0-.103-.258-.052-1.289 0 0 .567-1.496-.516-3.095l-.361-.413-.825-.774c-1.805-1.599-3.43-2.579-3.43-2.579s-.258-.206.052-.722c0 0 1.238-3.739 1.186-4.719 0 0 .103.98.928 1.186 0 0 .464.671 3.172-3.095 0 0 .413-.464.671-.516 0 0 .464-.361.774-.928l.619-1.135s.103-.361-.206-.258c0 0 .206-.413.103-.516 0 0-.103-.155-.258-.103 0 0 .103-.361-.155-.413 0 0-.258-.155-.774.774.052-.103.567-.928.309-1.032 0 0-.155-.155-.722.774l-.464.722s.155-.928-.309-1.083c0 0-.258-.103-.206.052 0 0 .103.671 0 .928 0 0-.206.671-.155 1.341 0 0 .103.567-.567 1.032 0 0-1.341.774-1.444.877 0 0 .309-2.527-.052-3.636 0 0-.103-.516-.877-1.135l-.258-.258s.619-.825.928-1.496c0 0 .928.258 1.186-.052 0 0 .258-.206.103-.464 0 0-.103-.103.052-.361 0 0 .155-.258.052-.774 0 0 .361-.155.413-.309 0 0 .103-.052-.206-.413l-.361-.516s-.103-.103-.103-.413c0 0-.103-1.186-.567-1.599 0 0 .619-.619-.155-.928 0 0-2.166-.928-4.255.413 0 0-1.083.928-.671 2.992 0 0 0 .516.774 1.186 0 0 .567.567.464 1.032 0 0-.258.413-.619.619 0 0-1.65.103-2.166.98l-3.688 2.373.155.258c-.464.155-1.547.619-1.65 1.032 0 0-.309.413-.567 3.327 0 0 0 .825.052 1.496 0 0 .206.928 0 1.547 0 0-.619 1.547-.258 2.166 0 0 .103.052 0 .464 0 0-.309 1.032 0 1.135 0 0 .052.052.155 0 0 0-.103.619.361.619 0 0 .155.516.516.103 0 0 .155-.103.155-.361 0 0 .206.361.413.103 0 0 .464-.825.567-1.96 0 0 .361.361.774.361 0 .516.155 1.083.413 1.702 0 0 .052.155-.052.619 0 0-.671 1.857-.671 3.739 0 0-.052.877-.361 1.238 0 0-2.888-.361-5.493 1.496 0 0-2.734 1.393-3.327 1.444-1.135-.516-2.063-.309-2.063-.309s-.413-.361-.671.155c0 0-.309.258-.309 1.908 0 0 .258.413-.103.877 0 0-.516 2.373.722 3.275 0 0 .928.567 1.135-.825l.052-.103.619-2.012c.052-.413 1.186-.825 1.186-.825s2.476-1.805 8.33-2.424c0 0 2.321.206 2.94-1.393l1.599-3.043s.567-1.135.567-1.754v-.671c1.908 1.289.722.774 4.1 2.012l.206.103s.206.052.258.206c0 0 .103.206.103.671 0 0-.052 2.579.258 3.688 0 0 .258.877 1.444 3.533 0 0 .567 1.599.619 2.115l.103.258c.052 1.186.774 1.857.774 1.857s-.052.516.361.619c0 0 .464 0 1.908-.825l.052-.052s0-.155.155-.309c0 0 .258-.103.464-.052 0 0 .103.052.155 0 0 0 2.218-.774 2.373-2.269 0 0 0-1.083-1.289-.567h-.103c-1.315.438-2.476.335-2.476.335m-12.533-17.769s-.155.309-.413.516c0 0-.98.774-1.083 2.321-.103-.052-.258-.258-.361-.619 0 0-.206-.516-.464-.825 0 0-.309-.258-.155-1.135 0 0 .619-1.96.567-4.152 0 0 .671-.103 1.238-.464l.103.155.155.258.671-.052c.103.851.258 2.708-.258 3.997M9.155 46.026h-1.754l-.361-5.235-2.166 3.843h-.567l-2.192-3.843-.361 5.235h-1.754l.516-9.026h1.444l2.605 4.823h.052l2.579-4.823h1.444zm7.261.557h-1.599c-.052-.258-.052-.464-.052-.619-.464.464-.98.671-1.547.671-.722 0-1.289-.206-1.65-.567s-.567-.877-.567-1.496c0-.567.206-1.032.567-1.341.361-.361.928-.516 1.65-.516h1.547v-.335c0-.309-.052-.567-.103-.671-.155-.206-.464-.309-.928-.309-.567 0-1.135.103-1.754.309l-.258-1.289c.567-.258 1.238-.413 1.96-.413 1.032-.052 1.805.206 2.269.671.309.309.464.825.464 1.65v2.682c-.103.387-.052.954 0 1.573m-1.728-2.45v-.361h-1.289c-.619 0-.928.258-.928.722 0 .516.309.774.928.774.464 0 .825-.103 1.032-.309.155-.129.258-.413.258-.825" id="Shape"/><path d="M21.868 41.599c-.258-.052-.567-.052-.98-.103-.825-.052-1.238.361-1.238 1.289v3.894h-1.599v-4.874c0-.619 0-1.186-.052-1.702h1.65l.052.619c.464-.464 1.032-.722 1.65-.722.155 0 .361 0 .516.052v1.547zm6.112 5.08h-1.599c-.052-.258-.052-.464-.052-.619-.464.464-.98.671-1.547.671-.722 0-1.289-.206-1.65-.567s-.567-.877-.567-1.496c0-.567.206-1.032.567-1.341.361-.361.928-.516 1.65-.516h1.547v-.335c0-.309-.052-.567-.103-.671-.155-.206-.464-.309-.928-.309-.567 0-1.135.103-1.754.309l-.258-1.289c.567-.258 1.238-.413 1.96-.413 1.032-.052 1.805.206 2.269.671.309.309.464.825.464 1.65v2.682c-.052.387-.052.954 0 1.573zm-1.702-2.45v-.361h-1.289c-.619 0-.928.258-.928.722 0 .516.309.774.928.774.464 0 .825-.103 1.032-.309.206-.129.258-.413.258-.825zm7.158-3.567h-1.702v3.43c0 .413.206.567.567.567l.774-.103.258 1.238c-.567.155-.98.258-1.341.258-.619 0-1.135-.206-1.444-.567-.309-.361-.464-.774-.464-1.289v-3.533h-1.083v-1.238h1.083v-1.908l1.65-.516v2.424h1.702v1.238zm6.834 5.338h-1.65v-3.997c0-.413-.103-.722-.361-.928-.206-.155-.413-.258-.722-.258s-.567.103-.722.258c-.258.206-.361.516-.361.928v3.997h-1.65v-8.949h1.65v2.888c.464-.361 1.032-.567 1.599-.567.619 0 1.135.206 1.547.567.464.464.671 1.083.671 1.857v4.204zm7.685-3.327c0 .619-.052 1.135-.155 1.496-.103.413-.361.774-.671 1.083-.567.516-1.289.825-2.269.825-.928 0-1.65-.258-2.218-.825-.309-.309-.516-.671-.671-1.083-.103-.361-.155-.877-.155-1.496s.052-1.135.155-1.496c.103-.413.361-.774.671-1.032.567-.516 1.289-.825 2.218-.825.928 0 1.702.258 2.269.825.309.309.516.619.671 1.032.103.361.155.877.155 1.496zm-1.728 0c0-.774-.155-1.289-.516-1.599-.206-.206-.516-.309-.877-.309-.516 0-.928.206-1.135.619-.155.309-.258.722-.258 1.238 0 .774.155 1.341.516 1.599.206.206.516.309.877.309.516 0 .877-.206 1.083-.567.206-.258.309-.722.309-1.289zm8.369 3.534h-1.676v-3.997c0-.413-.103-.722-.361-.928-.206-.155-.413-.258-.722-.258s-.567.103-.774.258c-.258.206-.361.516-.361.928v3.997h-1.65v-5.235c0-.464 0-.928-.052-1.393h1.65v.619c.464-.464.98-.671 1.65-.671.671 0 1.238.206 1.599.567.464.464.671 1.083.671 1.857l.026 4.255zm11.45 0h-2.037c-.155-.258-.413-.928-.722-1.96-.206-.671-.464-1.135-.774-1.341-.206-.155-.413-.206-.722-.206-.258 0-.516.052-.722.155v3.327h-1.702v-8.846h1.702v3.843l2.682-3.843h2.115l-2.888 3.997c.309.103.619.206.928.464.413.309.722.877.98 1.702.206.825.413 1.393.516 1.65.155.361.361.619.619.722l.026.335zm7.04-3.327c0 .619-.052 1.135-.155 1.496-.103.413-.361.774-.671 1.083-.567.516-1.289.825-2.269.825-.928 0-1.65-.258-2.218-.825-.309-.309-.516-.671-.671-1.083-.103-.361-.155-.877-.155-1.496s.052-1.135.155-1.496c.103-.413.361-.774.671-1.032.567-.516 1.289-.825 2.218-.825.928 0 1.702.258 2.269.825.309.309.516.619.671 1.032.103.361.155.877.155 1.496zm-3.791-4.333h-1.393v-1.547h1.393v1.547zm2.063 4.333c0-.774-.155-1.289-.516-1.599-.206-.206-.516-.309-.877-.309-.516 0-.928.206-1.135.619-.155.309-.258.722-.258 1.238 0 .774.155 1.341.516 1.599.206.206.516.309.877.309.516 0 .877-.206 1.083-.567.206-.258.309-.722.309-1.289zm.748-4.333h-1.393v-1.547h1.393v1.547z"/><path d="M75 37h1.65v9h-1.65zM83.964 45.984h-1.65v-3.997c0-.413-.103-.722-.361-.928-.206-.155-.413-.258-.722-.258s-.567.103-.774.258c-.258.206-.361.516-.361.928v3.997h-1.65v-5.235c0-.464 0-.928-.052-1.393h1.65v.619c.464-.464.98-.671 1.65-.671.671 0 1.238.206 1.599.567.464.464.671 1.083.671 1.857v4.255zm-27.8-14.983v-1.547h-4.41v-2.166h3.894v-1.547h-3.894v-2.166h4.41v-1.547h-6.164v9h6.164v-.026zm7.144 0v-4.255c0-.722-.155-1.341-.671-1.857-.361-.361-.928-.567-1.599-.567-.619 0-1.186.206-1.65.671l-.052-.619h-1.599c.052.309.052 1.238.052 1.393v5.235h1.65v-3.997c0-.877.619-1.186 1.135-1.186s1.083.309 1.083 1.186v3.997h1.65zm7.401-1.908h-1.702c-.155.361-.567.619-1.135.619-.98 0-1.496-.619-1.496-1.444h4.358v-.722c0-1.805-1.083-3.172-3.043-3.172-1.805 0-2.992 1.186-2.992 3.378 0 2.682 1.599 3.378 3.224 3.378 1.238-.077 2.579-.748 2.785-2.037zm-1.702-2.012h-2.63c0-.309.052-.464.155-.722.155-.413.567-.671 1.186-.671.567 0 .98.309 1.186.671.052.258.103.413.103.722zm6.989-1.186v-1.599c-1.393-.206-1.908.413-2.218.671l-.052-.619h-1.65c.052.309.052 1.444.052 1.702v4.9h1.65v-3.946c0-1.032.567-1.341 1.238-1.289.258.077.825.181.98.181zm6.37-1.522h-1.65l-.052.619s-.722-.825-1.96-.671c-.619.052-.98.206-1.341.567-.619.619-.774 1.444-.774 2.579 0 1.135.206 2.012.825 2.63.361.361.928.567 1.547.567.619 0 1.289-.155 1.702-.671v.671c0 .671-.464 1.496-1.444 1.496-.567 0-.825-.206-.98-.567h-1.393c.155 1.393 1.444 1.857 2.424 1.857 1.805 0 3.043-1.186 3.043-2.785v-4.823c0-.542.052-1.057.052-1.47zm-1.65 3.12c0 .619-.103 1.135-.464 1.444-.206.155-.464.258-.825.258-.361 0-.619-.103-.825-.258-.361-.309-.464-.825-.464-1.444s.103-1.135.464-1.444c.206-.155.464-.258.825-.258.361 0 .619.103.825.258.361.309.464.825.464 1.444zm4.977-4.204v-1.289h-1.702v1.341l1.702-.052zm0 1.032h-1.65v6.628h1.65v-6.628zm7.505 4.771h-1.702c-.155.361-.619.619-1.135.619-.98 0-1.496-.619-1.496-1.444h4.358v-.722c0-1.805-1.083-3.172-3.043-3.172-1.805 0-3.043 1.186-3.043 3.378 0 2.682 1.599 3.378 3.224 3.378 1.238-.077 2.579-.748 2.837-2.037zm-1.702-2.012h-2.63c0-.309.052-.464.155-.722.155-.413.567-.671 1.186-.671.567 0 .98.309 1.186.671l.103.722zm-67.714 4.202v-.258c-.361-.155-.464-.361-.671-.774 0 0-.206-.516-.309-1.083-.206-.774-.413-1.547-.928-1.754.774-.258 1.65-1.083 1.65-2.373 0-1.496-1.032-2.734-2.888-2.734h-3.636v9h1.754v-3.636h.98c.309 0 .464.103.619.258.206.155.464.671.671 1.496.155.619.413 1.444.671 1.857h2.089zm-2.037-6.267c0 .671-.516 1.186-1.289 1.186h-1.754v-2.373h1.754c.774 0 1.289.464 1.289 1.186zm8.768 6.267v-4.255c0-.722-.155-1.341-.671-1.857-.361-.361-.877-.567-1.547-.567-.722 0-1.238.258-1.599.567v-2.888h-1.65v9h1.65v-3.997c0-.877.567-1.186 1.135-1.186.516 0 1.083.309 1.083 1.186v3.997h1.599zm7.401-1.908h-1.702c-.155.361-.619.619-1.135.619-.98 0-1.496-.619-1.496-1.444h4.358v-.722c0-1.805-1.083-3.172-3.043-3.172-1.805 0-3.043 1.186-3.043 3.378 0 2.682 1.599 3.378 3.224 3.378 1.238-.077 2.579-.748 2.837-2.037zm-1.702-2.012h-2.63c0-.309.052-.464.155-.722.155-.413.567-.671 1.186-.671.567 0 .98.309 1.186.671.052.258.103.413.103.722zm4.797-3.791v-1.289h-1.702v1.341l1.702-.052zm0 1.032h-1.65v6.628h1.65v-6.628zm7.376 6.679v-4.255c0-.722-.155-1.341-.671-1.857-.361-.361-.928-.567-1.599-.567-.619 0-1.186.206-1.65.671l-.052-.619h-1.599c.052.309.052 1.238.052 1.393v5.235h1.65v-3.997c0-.877.619-1.186 1.135-1.186s1.083.309 1.083 1.186v3.997h1.65zm57.638 2.14c3.224 0 6.525.722 9.955 2.166 0 0 .052.052.155.052-.103-.361-.052-.825.103-1.444-.309-.877.052-2.063.309-2.734.052-.258 0-.774-.052-.98v-.103c-.052-.722-.052-1.547-.052-1.599v-.129c.155-1.805.361-3.043.671-3.636.103-.309.671-.98 1.135-1.289.464-.309 2.734-1.805 2.734-1.805l-4.565-21.921-7.092 27.233-7.195-27.233-7.556 35.95-.206.928c3.043-1.96 6.937-3.456 11.657-3.456z"/></svg>