<?xml version="1.0" encoding="utf-8"?>
<!-- Generator: Adobe Illustrator 19.0.0, SVG Export Plug-In . SVG Version: 6.00 Build 0)  -->
<svg version="1.1" id="Слой_1" xmlns="http://www.w3.org/2000/svg" xmlns:xlink="http://www.w3.org/1999/xlink" x="0px" y="0px"
	 viewBox="0 0 50 50" style="enable-background:new 0 0 50 50;" xml:space="preserve">
<style type="text/css">
	.st0{fill:#FFFFFF;}
</style>
<g id="XMLID_2_">
	<path id="XMLID_34_" class="st0" d="M49.4,24.5c0.1,5.4-1.4,10.3-4.5,14.7c-3.7,5.1-8.6,8.3-14.8,9.7C17.7,51.4,7,44.2,3,34.9
		c5.8-4.8,12.2-8.2,19.4-10.2C31.4,22.3,40.4,22.2,49.4,24.5z"/>
	<path id="XMLID_33_" class="st0" d="M35.1,3c2.5,1.1,4.7,2.6,6.7,4.5c2.7,2.6,4.7,5.6,6.1,9.1c0.5,1.4,1.3,4.3,1.2,4.8
		c-7.9-1.9-15.8-2-23.8-0.4c-1.8-2.3-3.8-4.3-6.1-6.2c3.1-1.3,5.9-3,8.6-5C30.5,7.8,32.9,5.5,35.1,3z"/>
	<path id="XMLID_32_" class="st0" d="M5.7,10.6c6.4,2.2,11.9,5.9,16.3,11.1c-7.4,2-14.1,5.4-20.2,10.2c-0.9-3-1.1-6-0.9-9.1
		C1.4,18.3,3,14.3,5.7,10.6z"/>
	<path id="XMLID_31_" class="st0" d="M7.8,8.2c3-3,6.5-5.1,10.5-6.3c4.6-1.3,9.1-1.3,13.7,0C32,1.9,32,1.9,31.9,2
		c-2.2,2.4-4.7,4.6-7.4,6.4c-2.5,1.7-5.1,3.1-7.9,4.2c-0.1,0-0.2,0.1-0.3,0c-2.6-1.8-5.4-3.2-8.3-4.3C7.9,8.2,7.9,8.2,7.8,8.2z"/>
</g>
</svg>
