<?xml version="1.0" encoding="UTF-8"?>
<svg width="120px" height="21px" viewBox="0 0 120 21" version="1.1" xmlns="http://www.w3.org/2000/svg" xmlns:xlink="http://www.w3.org/1999/xlink">
    <!-- Generator: Sketch 45.2 (43514) - http://www.bohemiancoding.com/sketch -->
    <title>logo</title>
    <desc>Created with Sketch.</desc>
    <defs></defs>
    <style type="text/css">
	   .st0{fill:#21C36D;}
    </style>
    <g id="Page-1" stroke="none" stroke-width="1" fill="none" fill-rule="evenodd">
        <g id="startseite-copy-7" transform="translate(-639.000000, -60.000000)" fill="#1D1D1B">
            <g id="logo" transform="translate(639.000000, 60.000000)">
               <path id="XMLID_3_" d="M6.6,15.9H4.4V5.5l2.2-0.2V15.9z M9,11.8l2.6,4.1H9.1l-2.4-4.1l2.5-3.4h2.3L9,11.8z"/>
                <path id="XMLID_6_" d="M19.5,14.7l-0.5,1.5c-0.9-0.1-1.5-0.4-1.8-1c-0.6,0.7-1.5,1-2.4,1c-1.5,0-2.5-1-2.5-2.3
                    c0-1.6,1.3-2.5,3.6-2.5h1V11c0-0.8-0.5-1.1-1.5-1.1c-0.5,0-1.3,0.1-2,0.4l-0.5-1.5c1-0.4,2.1-0.6,2.9-0.6c2.2,0,3.2,0.9,3.2,2.6
                    v2.9C19,14.3,19.2,14.5,19.5,14.7z M16.9,13.7v-1.2h-0.5c-1.2,0-1.8,0.4-1.8,1.1c0,0.6,0.4,0.9,1,0.9C16,14.6,16.6,14.3,16.9,13.7z
                    "/>
                <path id="XMLID_9_" d="M27.5,12.2c0,2.3-1.1,4-2.9,4c-0.7,0-1.3-0.3-1.8-0.8v3.4L20.6,19V8.5h2l0.1,0.8c0.6-0.8,1.4-1.1,2.1-1.1
                    C26.7,8.2,27.5,9.7,27.5,12.2z M22.8,10.7v3.1c0.3,0.4,0.6,0.7,1.1,0.7c0.8,0,1.2-0.6,1.2-2.3c0-1.8-0.4-2.3-1.1-2.3
                    C23.5,9.9,23.2,10.2,22.8,10.7z"/>
                <path id="XMLID_12_" d="M31.2,13.6c0,0.7,0.3,1,0.8,1c0.4,0,1-0.3,1.3-0.8V8.5h2.2v7.4h-1.9L33.4,15c-0.5,0.7-1.4,1.1-2.3,1.1
                    c-1.4,0-2.1-0.9-2.1-2.3V8.5h2.2V13.6z"/>
                <path id="XMLID_14_" d="M41.6,13.9c0-0.5-0.3-0.7-1.8-1.1c-1.4-0.4-2.3-1-2.3-2.3c0-1.3,1.1-2.3,3.2-2.3c1.3,0,2.3,0.4,3,0.9
                    l-0.9,1.3c-0.6-0.4-1.3-0.6-2.1-0.6c-0.7,0-1.1,0.2-1.1,0.6c0,0.4,0.3,0.5,1.8,1c1.4,0.4,2.4,0.9,2.4,2.4c0,1.6-1.6,2.5-3.5,2.5
                    c-1.4,0-2.5-0.4-3.3-1.1l1.1-1.2c0.6,0.4,1.3,0.8,2.2,0.8C41.1,14.6,41.6,14.3,41.6,13.9z"/>
                <path id="XMLID_16_" d="M49.1,16.1c-1.9,0-2.9-1.1-2.9-2.8V10h-1.6V8.5h1.6V6.9l2.2-0.3v1.9h2.4L50.6,10h-2.2v3.4
                    c0,0.7,0.3,1,1.1,1c0.5,0,1-0.1,1.3-0.3l0.7,1.4C50.9,15.8,50.1,16.1,49.1,16.1z"/>
                <path id="XMLID_18_" d="M60,14.7l-0.5,1.5c-0.9-0.1-1.5-0.4-1.8-1c-0.6,0.7-1.5,1-2.4,1c-1.5,0-2.5-1-2.5-2.3
                    c0-1.6,1.3-2.5,3.6-2.5h1V11c0-0.8-0.5-1.1-1.5-1.1c-0.5,0-1.3,0.1-2,0.4l-0.5-1.5c1-0.4,2.1-0.6,2.9-0.6c2.2,0,3.3,0.9,3.3,2.6
                    v2.9C59.5,14.3,59.6,14.5,60,14.7z M57.4,13.7v-1.2h-0.5c-1.2,0-1.8,0.4-1.8,1.1c0,0.6,0.4,0.9,1,0.9
                    C56.5,14.6,57.1,14.3,57.4,13.7z"/>
                <path id="XMLID_21_" class="st0" d="M64.6,11.8c1.2,0,2.2,1,2.2,2.2c0,1.2-1,2.2-2.2,2.2s-2.2-1-2.2-2.2
                    C62.3,12.8,63.3,11.8,64.6,11.8z"/>
                <path id="XMLID_23_" d="M73.2,13.9c0-0.5-0.3-0.7-1.8-1.1c-1.4-0.4-2.3-1-2.3-2.3c0-1.3,1.1-2.3,3.2-2.3c1.3,0,2.3,0.4,3,0.9
                    l-0.9,1.3c-0.6-0.4-1.3-0.6-2.1-0.6c-0.7,0-1.1,0.2-1.1,0.6c0,0.4,0.3,0.5,1.8,1c1.4,0.4,2.4,0.9,2.4,2.4c0,1.6-1.6,2.5-3.5,2.5
                    c-1.4,0-2.5-0.4-3.3-1.1l1.1-1.2c0.6,0.4,1.3,0.8,2.2,0.8C72.7,14.6,73.2,14.3,73.2,13.9z"/>
                <path id="XMLID_25_" d="M80.6,16.1c-1.9,0-2.9-1.1-2.9-2.8V10h-1.6V8.5h1.6V6.9L80,6.6v1.9h2.4L82.1,10H80v3.4c0,0.7,0.3,1,1.1,1
                    c0.5,0,1-0.1,1.3-0.3l0.7,1.4C82.5,15.8,81.6,16.1,80.6,16.1z"/>
                <path id="XMLID_27_" d="M86.7,13.6c0,0.7,0.3,1,0.8,1c0.4,0,1-0.3,1.3-0.8V8.5h2.2v7.4H89L88.9,15c-0.5,0.7-1.4,1.1-2.3,1.1
                    c-1.4,0-2.1-0.9-2.1-2.3V8.5h2.2V13.6z"/>
                <path id="XMLID_29_" d="M99.3,5.5v10.4h-2l-0.1-0.8c-0.4,0.6-1.1,1.1-2.1,1.1c-1.8,0-2.7-1.6-2.7-4c0-2.3,1.1-3.9,3-3.9
                    c0.7,0,1.2,0.2,1.7,0.7V5.3L99.3,5.5z M94.7,12.2c0,1.8,0.5,2.3,1.1,2.3c0.5,0,0.9-0.3,1.2-0.9v-3.2c-0.3-0.4-0.6-0.6-1.1-0.6
                    C95.2,9.8,94.7,10.5,94.7,12.2z"/>
                <path id="XMLID_32_" d="M105.8,14.4h1.9v1.5h-6.2v-1.5h2.1V10h-2V8.5h4.2V14.4z M105.8,5.8c0,0.7-0.5,1.2-1.3,1.2s-1.3-0.5-1.3-1.2
                    c0-0.7,0.5-1.2,1.3-1.2S105.8,5.1,105.8,5.8z"/>
                <path id="XMLID_35_" d="M116.1,12.2c0,2.5-1.3,4-3.6,4s-3.6-1.5-3.6-4c0-2.4,1.3-4,3.6-4C114.8,8.2,116.1,9.8,116.1,12.2z
                     M111.1,12.2c0,1.7,0.4,2.3,1.3,2.3s1.3-0.7,1.3-2.4c0-1.6-0.4-2.3-1.3-2.3S111.1,10.6,111.1,12.2z"/>
            </g>
        </g>
    </g>
</svg>