<svg width="141" height="46" viewBox="0 0 141 46" xmlns="http://www.w3.org/2000/svg"><title>pkwde</title><desc>Created with Sketch.</desc><path d="M12.921 20.59h-4.912v11.41h-8.009v-32h12.894c7.208 0 11.106 5.036 11.106 10.282.027 5.272-3.871 10.308-11.079 10.308m-.374-13.534h-4.538v6.479h4.512c2.189 0 3.471-1.574 3.471-3.226.027-1.679-1.255-3.252-3.444-3.252" id="Shape"/><path d="M43.843 32l-7.373-13.099-2.703 3.098v10.002h-7.767v-32h7.767v11.34l9.262-11.34h9.603l-10.915 12.968 11.283 19.032z"/><path d="M87 26h7v6h-7zM109.789 32.705v-2.012c-1.506 1.502-3.064 2.307-5.6 2.307-2.351 0-4.517-.832-5.917-2.254-2.404-2.441-2.272-6.761-2.272-10.383 0-3.622-.132-7.941 2.272-10.383 1.4-1.422 3.539-2.254 5.89-2.254 2.404 0 4.068.698 5.415 2.066v-9.793h7.422v32.705h-7.211zm-3.302-18.19c-2.747 0-3.064 2.254-3.064 5.822 0 3.595.317 5.822 3.064 5.822s3.064-2.254 3.064-5.822-.317-5.822-3.064-5.822zm19.829 8.4c0 1.99 1.543 3.822 4.336 3.822 2.607 0 3.724-.717 5.054-2.044l4.469 4.459c-2.501 2.495-4.975 3.848-9.524 3.848-5.427 0-11.652-1.964-11.652-12.5 0-7.988 4.549-12.5 10.987-12.5 7.103 0 11.013 5.175 11.013 11.598v3.317h-14.684zm6.89-6.847c-.452-1.035-1.463-1.911-3.245-1.911s-2.767.876-3.245 1.911c-.319.637-.399 1.327-.399 1.911h7.289c0-.61-.08-1.274-.399-1.911zm-50.386-16.068l-4.142 16.892-5.132-16.892h-5.523l-5.132 16.892-4.142-16.892h-2.397l-4.351 5.193 7.321 26.807h6.331l5.132-15.764 5.132 15.764h6.383l8.701-32zm-81.38 38.761v2.475h3.377v1.094h-3.377v3.412h-1.23v-8.101h5.21v1.094h-3.979v.026zm5.445 6.981v-8.101h1.23v8.101h-1.23zm8.351 0l-3.77-5.705v5.705h-1.23v-8.101h1.126l3.77 5.679v-5.679h1.23v8.101h-1.126zm8.43-1.016c-.576.703-1.283 1.016-2.304 1.016h-2.853v-8.101h2.853c1.021 0 1.728.313 2.304 1.016.602.729.628 1.719.628 3.022 0 1.329-.026 2.318-.628 3.048zm-1.047-5.418c-.34-.391-.812-.547-1.387-.547h-1.492v5.913h1.492c.576 0 1.047-.156 1.387-.547.393-.443.445-1.198.445-2.397 0-1.25-.052-1.98-.445-2.423zm3.508 6.434v-8.101h5.21v1.094h-3.953v2.37h3.377v1.094h-3.377v2.423h3.953v1.094h-5.21v.026zm14.791-1.016c-.576.703-1.283 1.016-2.304 1.016h-2.853v-8.101h2.853c1.021 0 1.728.313 2.304 1.016.602.729.628 1.719.628 3.022-.026 1.329-.052 2.318-.628 3.048zm-1.047-5.418c-.34-.391-.812-.547-1.387-.547h-1.492v5.913h1.492c.576 0 1.047-.156 1.387-.547.393-.443.445-1.198.445-2.397-.026-1.25-.052-1.98-.445-2.423zm3.482 6.434v-8.101h5.21v1.094h-3.953v2.37h3.377v1.094h-3.377v2.423h3.953v1.094h-5.21v.026zm11.885 0l-3.77-5.705v5.705h-1.23v-8.101h1.126l3.77 5.679v-5.679h1.23v8.101h-1.126zm9.293 0h-3.299v-8.101h3.168c1.518 0 2.461.86 2.461 2.214 0 .886-.55 1.511-1.1 1.719.628.26 1.23.86 1.23 1.876 0 1.511-1.021 2.292-2.461 2.292zm-.236-6.981h-1.833v2.318h1.833c.785 0 1.335-.417 1.335-1.172 0-.755-.55-1.146-1.335-1.146zm.131 3.412h-1.937v2.475h1.937c.864 0 1.335-.521 1.335-1.25s-.497-1.224-1.335-1.224zm4.398 3.569v-8.101h5.21v1.094h-3.953v2.37h3.377v1.094h-3.377v2.423h3.953v1.094h-5.21v.026zm9.032.078c-1.23 0-2.094-.287-2.88-1.068l.812-.808c.602.599 1.257.781 2.094.781 1.073 0 1.675-.443 1.675-1.25 0-.365-.079-.651-.314-.834-.209-.182-.471-.287-.89-.339l-.969-.13c-.654-.104-1.178-.313-1.518-.651-.393-.365-.602-.886-.602-1.563 0-1.407 1.021-2.37 2.723-2.37 1.073 0 1.833.26 2.513.912l-.785.781c-.497-.469-1.1-.625-1.806-.625-.969 0-1.466.521-1.466 1.25 0 .287.079.573.288.755.209.182.445.287.89.365l.969.156c.733.104 1.152.287 1.518.599.445.391.654.964.654 1.667.026 1.485-1.178 2.37-2.906 2.37zm7.356-7.059v6.981h-1.23v-6.981h-2.251v-1.094h5.707v1.094h-2.225zm3.639 6.981v-8.101h5.21v1.094h-3.953v2.37h3.351v1.094h-3.377v2.423h3.953v1.094h-5.183v.026zm11.885 0l-3.77-5.705v5.705h-1.23v-8.101h1.126l3.77 5.679v-5.679h1.23v8.101h-1.126zm9.084-3.204h-1.859v3.204h-1.23v-8.101h3.089c1.597 0 2.618 1.042 2.618 2.449 0 1.407-1.021 2.449-2.618 2.449zm-.079-3.777h-1.78v2.709h1.78c.864 0 1.44-.495 1.44-1.355 0-.886-.576-1.355-1.44-1.355zm8.665 6.981l-1.702-3.412h-1.545v3.412h-1.23v-8.101h3.141c1.545 0 2.513.99 2.513 2.37 0 1.172-.707 1.902-1.623 2.162l1.885 3.595h-1.44v-.026zm-1.414-6.981h-1.833v2.527h1.833c.812 0 1.387-.469 1.387-1.25-.026-.808-.576-1.276-1.387-1.276zm4.424 6.981v-8.101h5.21v1.094h-3.953v2.37h3.377v1.094h-3.377v2.423h3.953v1.094h-5.21v.026zm6.885 0v-8.101h1.23v8.101h-1.23zm5.524.078c-1.23 0-2.094-.287-2.88-1.068l.812-.808c.602.599 1.257.781 2.094.781 1.073 0 1.675-.443 1.675-1.25 0-.365-.079-.651-.314-.834-.209-.182-.471-.287-.89-.339l-.969-.13c-.654-.104-1.178-.313-1.518-.651-.393-.365-.602-.886-.602-1.563 0-1.407 1.021-2.37 2.723-2.37 1.073 0 1.833.26 2.513.912l-.785.781c-.497-.469-1.1-.625-1.806-.625-.969 0-1.466.521-1.466 1.25 0 .287.079.573.288.755.209.182.445.287.89.365l.969.156c.733.104 1.152.287 1.518.599.445.391.654.964.654 1.667 0 1.485-1.204 2.37-2.906 2.37zm6.047-2.475h-.916l-.262-5.679h1.414l-.236 5.679zm-1.1 2.397v-1.25h1.283v1.25h-1.283z"/></svg>