<svg width="141" height="58" viewBox="0 0 141 58" xmlns="http://www.w3.org/2000/svg"><title>trustedshops-logo</title><desc>Created with Sketch.</desc><path d="M54.298 54.304c1.149.582 2.435.907 3.738.924 1.543 0 2.366-.633 2.366-1.608 0-.924-.703-1.454-2.486-2.087-2.469-.855-4.08-2.224-4.08-4.38 0-2.532 2.126-4.465 5.624-4.465 1.303-.017 2.606.24 3.789.753l-.754 2.703c-.977-.462-2.04-.701-3.103-.701-1.457 0-2.16.667-2.16 1.437 0 .941.84 1.369 2.76 2.087 2.623.975 3.858 2.327 3.858 4.431 0 2.481-1.92 4.602-6.001 4.602-1.697 0-3.378-.445-4.218-.907l.669-2.789zm14.745-11.395v5.697h5.538v-5.697h3.36v14.851h-3.36v-6.211h-5.538v6.211h-3.378v-14.851h3.378zm25.117 7.271c0 4.876-2.949 7.819-7.304 7.819-4.406 0-6.995-3.319-6.995-7.545 0-4.448 2.846-7.768 7.235-7.768 4.578-.017 7.064 3.388 7.064 7.494zm-10.75.188c0 2.909 1.372 4.962 3.618 4.962 2.246 0 3.566-2.156 3.566-5.047 0-2.669-1.286-4.962-3.6-4.962-2.246.017-3.583 2.173-3.583 5.047zm12.67-7.254c1.509-.222 3.018-.325 4.543-.308 2.075 0 3.549.394 4.543 1.198 1.029.838 1.612 2.104 1.594 3.439 0 1.454-.48 2.686-1.372 3.524-1.149 1.078-2.846 1.557-4.835 1.557-.377 0-.772-.017-1.149-.068v5.304h-3.343l.017-14.645zm3.326 6.741c.377.068.754.103 1.132.086 1.783 0 2.897-.907 2.897-2.429 0-1.369-.943-2.173-2.623-2.173-.463-.017-.926.034-1.389.137l-.017 4.38zm9.104 4.448c1.149.582 2.435.907 3.738.924 1.543 0 2.366-.633 2.366-1.608 0-.924-.703-1.454-2.486-2.087-2.469-.855-4.08-2.224-4.08-4.38 0-2.532 2.126-4.465 5.624-4.465 1.303-.017 2.606.24 3.789.753l-.754 2.703c-.977-.462-2.04-.701-3.12-.701-1.457 0-2.16.667-2.16 1.437 0 .941.84 1.369 2.76 2.087 2.623.975 3.858 2.327 3.858 4.431 0 2.481-1.92 4.602-6.001 4.602-1.697 0-3.378-.445-4.218-.907l.686-2.789zm-51.486-26.964h-4.012v-2.823h11.487v2.823h-4.08v12.096h-3.395v-12.096zm8.761-2.635c1.492-.222 3-.325 4.509-.308 2.212 0 3.772.325 4.835 1.181.892.701 1.372 1.745 1.372 3.114 0 1.899-1.354 3.217-2.64 3.678v.068c1.046.428 1.629 1.42 1.989 2.789.463 1.677.926 3.627 1.217 4.209h-3.463c-.24-.428-.6-1.642-1.046-3.473-.394-1.865-1.046-2.378-2.417-2.395h-1.029v5.886h-3.343l.017-14.748zm3.343 6.433h1.337c1.68 0 2.692-.838 2.692-2.156 0-1.369-.926-2.053-2.486-2.087-.514-.017-1.029.034-1.526.103l-.017 4.14zm12.722-6.621v8.589c0 2.566.977 3.867 2.709 3.867 1.783 0 2.743-1.232 2.743-3.867v-8.589h3.378v8.366c0 4.602-2.332 6.792-6.241 6.792-3.772 0-5.984-2.087-5.984-6.844v-8.315h3.395zm11.247 11.446c1.166.582 2.452.907 3.755.924 1.56 0 2.366-.65 2.366-1.608 0-.924-.703-1.454-2.503-2.104-2.486-.873-4.098-2.241-4.098-4.397 0-2.549 2.126-4.5 5.658-4.5 1.303-.017 2.606.24 3.823.753l-.754 2.72c-.977-.479-2.04-.719-3.12-.701-1.457 0-2.177.667-2.177 1.437 0 .958.84 1.369 2.777 2.104 2.64.975 3.892 2.344 3.892 4.448 0 2.498-1.937 4.619-6.035 4.619-1.714 0-3.395-.445-4.235-.907l.652-2.789zm14.265-8.623h-4.012v-2.823h11.487v2.823h-4.08v12.096h-3.395v-12.096zm17.659 5.783h-5.504v3.542h6.138v2.772h-9.55v-14.919h9.241v2.772h-5.829v3.097h5.486l.017 2.737zm2.743-8.418c1.509-.222 3.035-.325 4.578-.308 2.846 0 4.681.513 6.121 1.591 1.56 1.146 2.537 2.994 2.537 5.629 0 2.857-1.046 4.825-2.486 6.04-1.577 1.3-3.978 1.933-6.892 1.933-1.286.017-2.572-.051-3.84-.222v-14.663h-.017zm3.395 12.182c.394.051.789.086 1.183.068 3.069.017 5.058-1.66 5.058-5.218.017-3.097-1.8-4.722-4.698-4.722-.514-.017-1.029.034-1.526.137l-.017 9.735zm-106.864-36.887c-13.407 0-24.294 10.864-24.294 24.244 0 13.379 10.887 24.244 24.294 24.244 13.424 0 24.294-10.847 24.294-24.244.017-13.379-10.87-24.244-24.294-24.244zm-.189 39.454c-8.452 0-15.31-6.844-15.31-15.278 0-8.435 6.841-15.278 15.31-15.278 8.47 0 15.31 6.844 15.31 15.278 0 8.435-6.858 15.278-15.31 15.278zm6.597-10.599c-2.262 3.215-5.411 6.146-9.622 6.146-4.472 0-7.082-2.696-7.082-7.05 0-7.05 5.411-13.95 13.015-13.95 2.558 0 5.985.988 5.985 3.969 0 5.342-8.7 7.134-12.962 8.172-.174.888-.261 1.792-.296 2.696 0 1.842 1.027 3.55 3.149 3.55 2.749 0 4.959-2.545 6.577-4.438l1.235.904zm-2.366-11.488c0-1.089-.644-1.943-1.81-1.943-3.532 0-5.359 6.615-6.038 9.227 3.288-.938 7.847-3.55 7.847-7.285z"/></svg>