<svg width="202" height="35" viewBox="0 0 202 35" xmlns="http://www.w3.org/2000/svg"><title>volksbanken</title><desc>Created with Sketch.</desc><path d="M31 35h20v-7h-18.881c-.516 3.21-.947 5.941-1.119 7zm-31-7v7h21l-1.396-7zm0-2.03h18.505l-2.627-11.767h-5.814l-1.476-6.299h12.691l4.102 18.096h.177l2.597-11.589c1.299-5.259 1.8-6.507 9.149-6.507h5.283s-1.063 4.843-2.391 10.103c-.502 2.021-4.929 1.783-4.693-.119l.384-2.615c.236-1.456-1.446-1.634-1.741-.208-.207 1.01-1.181 6.121-2.095 10.875h18.948v-25.941h-51v25.97z"/><path d="M60.211 2.035h2.623l3.135 9.431h.03l3.105-9.431h2.442l-4.13 12.003h-3.015zm15.919 2.956c2.683 0 4.733 1.774 4.733 4.701 0 2.543-1.749 4.583-4.733 4.583-2.985 0-4.733-2.04-4.733-4.583.03-2.927 2.08-4.701 4.733-4.701zm0 7.48c1.809 0 2.291-1.597 2.291-3.075 0-1.36-.724-2.631-2.291-2.631-1.538 0-2.261 1.301-2.261 2.631 0 1.478.482 3.075 2.261 3.075zm6.632-11.323h2.352v12.92h-2.352zm4.884 0h2.352v7.598h.03l2.804-3.548h2.774l-3.346 3.962 3.799 4.908h-2.985l-3.015-4.317h-.03v4.317h-2.352zm15.075 5.913c-.724-.237-1.236-.384-2.11-.384-.633 0-1.387.237-1.387.976 0 1.419 4.1.503 4.1 3.725 0 2.07-1.869 2.897-3.799 2.897-.904 0-1.809-.148-2.653-.384l.151-1.892c.724.355 1.507.591 2.321.591.603 0 1.538-.237 1.538-1.094 0-1.744-4.1-.562-4.1-3.755 0-1.922 1.688-2.75 3.558-2.75 1.115 0 1.839.177 2.563.325l-.181 1.744zm2.411-5.913h2.352v5.174h.03c.663-.857 1.477-1.33 2.713-1.33 2.774 0 3.799 2.158 3.799 4.612 0 2.424-1.025 4.671-3.799 4.671-.995 0-2.08-.355-2.774-1.301h-.03v1.094h-2.291v-12.92zm4.462 11.323c1.538 0 1.99-1.656 1.99-2.868 0-1.183-.422-2.809-1.96-2.809-1.507 0-2.11 1.597-2.11 2.809 0 1.242.513 2.868 2.08 2.868zm6.693-6.829c.904-.414 2.141-.68 3.135-.68 2.744 0 3.889 1.123 3.889 3.725v1.123c0 .887.03 1.567.03 2.217l.09 1.981h-2.08c-.09-.473-.09-1.064-.09-1.33h-.03c-.543.976-1.718 1.537-2.804 1.537-1.598 0-3.166-.946-3.166-2.631 0-1.33.663-2.099 1.538-2.543.904-.443 2.05-.503 3.045-.503h1.296c0-1.419-.663-1.922-2.05-1.922-.995 0-1.99.384-2.804.976v-1.951zm2.744 6.918c.724 0 1.266-.296 1.658-.798.392-.503.482-1.123.482-1.833h-1.025c-1.055 0-2.623.177-2.623 1.537 0 .769.663 1.094 1.507 1.094zm6.603-7.362h2.231v1.212h.03c.724-1.005 1.749-1.419 2.955-1.419 2.141 0 3.075 1.478 3.075 3.489v5.588h-2.352v-4.73c0-1.094-.03-2.543-1.538-2.543-1.688 0-2.08 1.803-2.08 2.957v4.346h-2.352l.03-8.899zm10.763-4.05h2.352v7.598h.03l2.804-3.548h2.774l-3.377 3.962 3.799 4.908h-2.985l-3.015-4.317h-.03v4.317h-2.352zm16.973 12.417c-.874.473-1.839.71-3.105.71-2.985 0-4.733-1.685-4.733-4.583 0-2.572 1.387-4.671 4.191-4.671 3.346 0 4.311 2.247 4.311 5.351h-6.241c.121 1.419 1.115 2.247 2.593 2.247 1.146 0 2.11-.414 3.015-.887l-.03 1.833zm-1.598-4.819c-.06-1.123-.603-2.07-1.899-2.07-1.327 0-1.99.887-2.08 2.07h3.98zm4.101-3.548h2.231v1.212h.03c.724-1.005 1.749-1.419 2.955-1.419 2.141 0 3.075 1.478 3.075 3.489v5.588h-2.352v-4.73c0-1.094-.03-2.543-1.538-2.543-1.688 0-2.08 1.803-2.08 2.957v4.346h-2.321v-8.899zm-94.637 17.503h2.653c2.623 0 5.789-.089 5.789 3.252 0 1.419-.965 2.572-2.532 2.779v.03c.663.059 1.055.71 1.296 1.242l1.96 4.701h-2.744l-1.477-3.755c-.362-.887-.663-1.242-1.688-1.242h-.784v4.997h-2.442l-.03-12.003zm2.472 5.115h.814c1.206 0 2.593-.177 2.593-1.656 0-1.449-1.357-1.567-2.593-1.567h-.814v3.223zm8.683-1.508c.904-.414 2.141-.68 3.135-.68 2.744 0 3.889 1.123 3.889 3.725v1.123c0 .887.03 1.567.03 2.217.03.68.06 1.301.121 1.981h-2.08c-.09-.473-.09-1.064-.121-1.33h-.03c-.543.976-1.718 1.537-2.804 1.537-1.598 0-3.166-.946-3.166-2.631 0-1.33.663-2.099 1.538-2.543.874-.443 2.05-.503 3.045-.503h1.296c0-1.419-.663-1.922-2.05-1.922-.995 0-1.99.384-2.804.976v-1.951zm2.744 6.918c.724 0 1.266-.296 1.658-.798.392-.503.482-1.123.482-1.833h-1.025c-1.055 0-2.623.177-2.623 1.537 0 .769.663 1.094 1.507 1.094zm6.662-11.205h2.352v2.217h-2.352v-2.217zm0 3.814h2.352v8.87h-2.352v-8.87zm5.668 1.685h-1.749v-1.685h1.749v-1.242c0-1.774 1.025-3.016 2.864-3.016.603 0 1.266.089 1.718.177l-.181 1.922c-.211-.118-.513-.296-1.025-.296-.784 0-1.025.68-1.025 1.36v1.094h2.05v1.685h-2.05v7.184h-2.352v-7.184zm6.512 0h-1.718v-1.685h1.749v-1.242c0-1.774 1.025-3.016 2.864-3.016.603 0 1.266.089 1.718.177l-.181 1.922c-.211-.118-.513-.296-1.025-.296-.784 0-1.025.68-1.025 1.36v1.094h2.05v1.685h-2.05v7.184h-2.352l-.03-7.184zm13.236 6.682c-.874.473-1.839.71-3.105.71-2.985 0-4.733-1.685-4.733-4.583 0-2.572 1.387-4.671 4.191-4.671 3.346 0 4.311 2.247 4.311 5.351h-6.271c.121 1.419 1.115 2.247 2.593 2.247 1.146 0 2.11-.414 3.015-.887v1.833zm-1.598-4.79c-.06-1.123-.603-2.07-1.899-2.07-1.327 0-1.99.887-2.08 2.07h3.98zm4.16-7.391h2.352v2.217h-2.352v-2.217zm0 3.814h2.352v8.87h-2.352v-8.87zm10.191 1.862c-.724-.237-1.236-.384-2.11-.384-.633 0-1.387.237-1.387.976 0 1.419 4.1.503 4.1 3.725 0 2.07-1.869 2.897-3.799 2.897-.904 0-1.809-.148-2.653-.384l.151-1.892c.724.355 1.507.591 2.321.591.603 0 1.538-.237 1.538-1.094 0-1.744-4.1-.562-4.1-3.755 0-1.922 1.688-2.75 3.558-2.75 1.115 0 1.839.177 2.563.325l-.181 1.744zm9.677 6.505c-.874.473-1.839.71-3.105.71-2.985 0-4.733-1.685-4.733-4.583 0-2.572 1.387-4.671 4.191-4.671 3.346 0 4.311 2.247 4.311 5.351h-6.241c.121 1.419 1.115 2.247 2.593 2.247 1.146 0 2.11-.414 3.015-.887l-.03 1.833zm-1.598-4.79c-.06-1.123-.603-2.07-1.899-2.07-1.327 0-1.99.887-2.08 2.07h3.98zm4.101-3.577h2.231v1.212h.03c.724-1.005 1.749-1.419 2.955-1.419 2.141 0 3.075 1.478 3.075 3.489v5.588h-2.352v-4.73c0-1.094-.03-2.543-1.538-2.543-1.688 0-2.08 1.803-2.08 2.957v4.317h-2.352l.03-8.87zm10.733-4.021h2.352v5.174h.03c.663-.857 1.477-1.33 2.713-1.33 2.774 0 3.799 2.158 3.799 4.612 0 2.424-1.025 4.671-3.799 4.671-.995 0-2.08-.355-2.774-1.301h-.03v1.094h-2.291v-12.92zm4.432 11.323c1.538 0 1.99-1.656 1.99-2.868 0-1.183-.422-2.809-1.96-2.809-1.507 0-2.11 1.597-2.11 2.809 0 1.242.513 2.868 2.08 2.868zm6.692-6.829c.904-.414 2.141-.68 3.135-.68 2.744 0 3.889 1.123 3.889 3.725v1.123c0 .887.03 1.567.03 2.217l.09 1.981h-2.08c-.09-.473-.09-1.064-.09-1.33h-.03c-.543.976-1.718 1.537-2.804 1.537-1.598 0-3.166-.946-3.166-2.631 0-1.33.663-2.099 1.538-2.543.904-.443 2.05-.503 3.045-.503h1.296c0-1.419-.663-1.922-2.05-1.922-.995 0-1.99.384-2.804.976v-1.951zm2.744 6.918c.724 0 1.266-.296 1.658-.798.392-.503.482-1.123.482-1.833h-1.025c-1.055 0-2.623.177-2.623 1.537.03.769.663 1.094 1.507 1.094zm6.602-7.391h2.231v1.212h.03c.724-1.005 1.749-1.419 2.955-1.419 2.141 0 3.075 1.478 3.075 3.489v5.588h-2.352v-4.73c0-1.094-.03-2.543-1.538-2.543-1.688 0-2.08 1.803-2.08 2.957v4.317h-2.352l.03-8.87zm10.764-4.021h2.352v7.569h.03l2.804-3.548h2.774l-3.377 3.962 3.799 4.908h-2.985l-3.015-4.317h-.03v4.317h-2.352zm16.973 12.388c-.874.473-1.839.71-3.105.71-2.985 0-4.733-1.685-4.733-4.583 0-2.572 1.387-4.671 4.191-4.671 3.346 0 4.311 2.247 4.311 5.351h-6.241c.09 1.419 1.115 2.247 2.593 2.247 1.146 0 2.11-.414 3.015-.887v1.833h-.03zm-1.598-4.79c-.06-1.123-.603-2.07-1.899-2.07-1.327 0-1.99.887-2.08 2.07h3.98zm4.101-3.577h2.231v1.212h.03c.724-1.005 1.749-1.419 2.955-1.419 2.141 0 3.075 1.478 3.075 3.489v5.588h-2.352v-4.73c0-1.094-.03-2.543-1.538-2.543-1.688 0-2.08 1.803-2.08 2.957v4.317h-2.352l.03-8.87z"/></svg>