<?xml version="1.0" encoding="UTF-8"?>
<svg width="89px" height="89px" viewBox="0 0 89 89" version="1.1" xmlns="http://www.w3.org/2000/svg" xmlns:xlink="http://www.w3.org/1999/xlink">
    <!-- Generator: Sketch 46.2 (44496) - http://www.bohemiancoding.com/sketch -->
    <title>Page 1</title>
    <desc>Created with Sketch.</desc>
    <defs></defs>
    <g id="Page-1" stroke="none" stroke-width="1" fill="none" fill-rule="evenodd">
        <g id="projektdetail---ausbildung.de" transform="translate(-247.000000, -3303.000000)" stroke="#FF6000" stroke-width="6">
            <g id="Page-1" transform="translate(250.000000, 3306.000000)">
                <path d="M82.1046564,75.0570509 L67.9403291,60.8912145 C67.1480564,60.1004509 67.3532927,58.7664145 68.3462745,58.2487964 L79.2630382,52.5640509 C80.7691109,51.7808327 80.7057291,49.6047236 79.1574018,48.9075236 L32.4193473,29.5866327 C30.8680018,28.8894327 29.2789291,30.4785055 29.9761291,32.0298509 L49.3015473,78.7648873 C49.9972382,80.3132145 52.1733473,80.3750873 52.9580745,78.8690145 L58.64282,67.95376 C59.1604382,66.9607782 60.4929655,66.7555418 61.2852382,67.5463055 L75.4495655,81.7106327 C76.32182,82.5828873 77.7343291,82.5828873 78.6065836,81.7106327 L82.1046564,78.2140691 C82.9769109,77.3418145 82.9769109,75.9277964 82.1046564,75.0570509 Z" id="Stroke-1"></path>
                <path d="M32.8123145,13.51074 L32.8123145,-0.000150909091" id="Stroke-3" stroke-linecap="round" stroke-linejoin="round"></path>
                <path d="M-0.000150909091,32.8120127 L13.51074,32.8120127" id="Stroke-5" stroke-linecap="round" stroke-linejoin="round"></path>
                <path d="M9.61079636,9.61049455 L19.1648509,19.1645491" id="Stroke-7" stroke-linecap="round" stroke-linejoin="round"></path>
                <path d="M46.4603818,19.1639455 L56.0144364,9.60989091" id="Stroke-9" stroke-linecap="round" stroke-linejoin="round"></path>
                <path d="M9.61079636,56.0135309 L19.1648509,46.4594764" id="Stroke-11" stroke-linecap="round" stroke-linejoin="round"></path>
            </g>
        </g>
    </g>
</svg>