<?xml version="1.0" encoding="UTF-8"?>
<svg width="74px" height="83px" viewBox="0 0 74 83" version="1.1" xmlns="http://www.w3.org/2000/svg" xmlns:xlink="http://www.w3.org/1999/xlink">
    <!-- Generator: Sketch 46.2 (44496) - http://www.bohemiancoding.com/sketch -->
    <title>Page 1</title>
    <desc>Created with Sketch.</desc>
    <defs></defs>
    <g id="Page-1" stroke="none" stroke-width="1" fill="none" fill-rule="evenodd">
        <g id="projektdetail---ausbildung.de" transform="translate(-944.000000, -3308.000000)" stroke="#FF6000" stroke-width="6">
            <g id="Page-1" transform="translate(947.000000, 3310.000000)">
                <path d="M67.56915,44.21365 C67.56915,62.87215 52.44315,77.99815 33.78465,77.99815 C15.12615,77.99815 0.00015,62.87215 0.00015,44.21365 C0.00015,25.55515 15.12615,10.43065 33.78465,10.43065 C52.44315,10.43065 67.56915,25.55515 67.56915,44.21365 Z" id="Stroke-1"></path>
                <path d="M39.03405,44.21365 C39.03405,47.11315 36.68505,49.46365 33.78405,49.46365 C30.88455,49.46365 28.53405,47.11315 28.53405,44.21365 C28.53405,41.31415 30.88455,38.96365 33.78405,38.96365 C36.68505,38.96365 39.03405,41.31415 39.03405,44.21365 Z" id="Stroke-3"></path>
                <path d="M33.78405,10.4299 L33.78405,0.9994" id="Stroke-5" stroke-linecap="round" stroke-linejoin="round"></path>
                <path d="M28.78455,1 L38.97855,1" id="Stroke-7" stroke-linecap="round" stroke-linejoin="round"></path>
                <path d="M58.36995,20.09785 L62.16195,16.30435" id="Stroke-9" stroke-linecap="round" stroke-linejoin="round"></path>
                <path d="M33.78405,44.21365 L33.78405,25.09315" id="Stroke-11" stroke-linecap="round" stroke-linejoin="round"></path>
            </g>
        </g>
    </g>
</svg>