<?xml version="1.0" encoding="UTF-8"?>
<svg width="140px" height="78px" viewBox="0 0 140 78" version="1.1" xmlns="http://www.w3.org/2000/svg" xmlns:xlink="http://www.w3.org/1999/xlink">
    <!-- Generator: Sketch 46.2 (44496) - http://www.bohemiancoding.com/sketch -->
    <title>Page 1</title>
    <desc>Created with Sketch.</desc>
    <defs></defs>
    <g id="Page-1" stroke="none" stroke-width="1" fill="none" fill-rule="evenodd">
        <g id="projektdetail---ausbildung.de" transform="translate(-570.000000, -3314.000000)" stroke="#FF6000" stroke-width="6">
            <g id="Page-1" transform="translate(573.000000, 3317.000000)">
                <path d="M85.8205258,19.2705 C85.8205258,29.913 77.1602112,38.541 66.4778517,38.541 C55.7954921,38.541 47.1351775,29.913 47.1351775,19.2705 C47.1351775,8.628 55.7954921,0 66.4778517,0 C77.1602112,0 85.8205258,8.628 85.8205258,19.2705 Z" id="Stroke-1"></path>
                <path d="M81.8425326,46.6638 C89.1523079,52.0548 93.9582404,61.1853 93.9582404,71.5398" id="Stroke-3" stroke-linecap="round" stroke-linejoin="round"></path>
                <path d="M38.9971618,71.54055 C38.9971618,61.18605 43.8030944,52.05555 51.1128697,46.66455" id="Stroke-5" stroke-linecap="round" stroke-linejoin="round"></path>
                <path d="M125.86349,29.69655 C125.86349,37.81305 119.258344,44.39355 111.111445,44.39355 C102.964546,44.39355 96.3594,37.81305 96.3594,29.69655 C96.3594,21.58005 102.964546,14.99955 111.111445,14.99955 C119.258344,14.99955 125.86349,21.58005 125.86349,29.69655 Z" id="Stroke-7"></path>
                <path d="M123.789652,51.87945 C129.566708,56.14095 133.365382,63.35595 133.365382,71.53995" id="Stroke-9" stroke-linecap="round" stroke-linejoin="round"></path>
                <path d="M7.5020427,29.69655 C7.5020427,37.81305 14.1071888,44.39355 22.2540876,44.39355 C30.4009865,44.39355 37.0061326,37.81305 37.0061326,29.69655 C37.0061326,21.58005 30.4009865,14.99955 22.2540876,14.99955 C14.1071888,14.99955 7.5020427,21.58005 7.5020427,29.69655 Z" id="Stroke-11"></path>
                <path d="M9.5758809,51.87945 C3.79882472,56.14095 0.000150561798,63.35595 0.000150561798,71.53995" id="Stroke-13" stroke-linecap="round" stroke-linejoin="round"></path>
            </g>
        </g>
    </g>
</svg>